<svg xmlns="http://www.w3.org/2000/svg" viewBox="0 0 1888 1174"><defs><style>.cls-1{fill:#1c3e56;}.cls-2{fill:#1d415b;}.cls-3{fill:#1d415c;}.cls-4{fill:#1e445e;}.cls-5{fill:#1b3f57;}.cls-6{fill:#163042;}.cls-7{fill:#163142;}.cls-8{fill:#163143;}.cls-9{fill:#1c3f57;}.cls-10{fill:#1e445d;}</style></defs><g id="Calque_2" data-name="Calque 2"><g id="Calque_1-2" data-name="Calque 1"><path class="cls-1" d="M426.06,1173.9q-210.85,0-421.72.1c-3.62,0-4.33-.77-4.33-4.35Q.18,945.31.1,721C3.27,713.17,10.56,709.2,16.41,704c29.14-25.75,60.56-48.59,92.83-70.17a998.71,998.71,0,0,1,93.15-55.46c40.8-21.26,82.38-40.84,125.22-57.69,61.21-24.08,124.06-42.81,188.09-57.7q66-15.34,133.07-25c28.51-4.14,57.16-7.23,85.87-9.56,26.53-2.15,53.07-4.22,79.7-5.18,23.1-.83,46.18-2.52,69.26-3.93,19.6-1.2,39.24-1.6,58.82-3,20.09-1.41,40.15-3.11,60.23-4.6q25.9-1.92,51.75-4.29c34-3.13,68-6.16,101.84-10.46,25.92-3.3,52-5.75,77.85-9.39,46.86-6.6,93.5-14.46,140-23.24q93.39-17.64,184.71-43.88c55.45-15.93,109.93-34.72,163.66-55.71Q1786,240,1847.17,209.58c11.34-5.63,22.92-10.77,33.79-17.3,2.21-1.33,4.57-2.19,6.94-.22V660a16.45,16.45,0,0,1-5.61,6.17c-31.81,20.17-64.08,39.55-98,56a1238,1238,0,0,1-122,51.36c-76.47,27.56-155,48.09-233.94,66.7-41.83,9.86-83.62,20-125.94,27.58-19.5,3.51-39.23,5.42-59,6.79-19.59,1.35-39.21,3-58.82,2.62-21.94-.4-43.89-1.55-65.83-2.61-11.13-.53-22.29-.47-33.44-.93-12.13-.49-24.3-.85-36.41-1.46-31-1.57-61.91-1.52-92.88-1.92-25-.33-49.88,1.54-74.74,4.3a581.16,581.16,0,0,0-69.84,12.18c-24.42,5.77-47.8,14.5-70.93,24-31.13,12.81-62,26.09-92.07,41.36-44.26,22.51-86.29,48.46-123.64,81.44-41,36.18-73.32,78.55-92.49,130.25C430.91,1167.6,430.06,1171.77,426.06,1173.9Z"/><path class="cls-2" d="M1887.9,192.06c-14.44,7.22-28.79,14.61-43.27,21.78-56.06,27.76-113.78,51.48-172.59,72.74a1862.3,1862.3,0,0,1-195.73,58.57c-84.29,20.36-169.56,35.57-255.5,46.91-38.31,5.06-76.68,9.79-115.14,13.44-33.14,3.15-66.27,6.6-99.52,8.67-25.58,1.59-51.12,3.92-76.69,5.61-16.11,1.05-32.26,1.4-48.38,2.27-20.93,1.13-41.85,2.73-62.79,3.62-18.14.77-36.23,2-54.33,3.2q-52.12,3.39-103.87,10.4a1530.06,1530.06,0,0,0-222.32,46.85,1242.57,1242.57,0,0,0-176.27,66,1124.28,1124.28,0,0,0-148,82.13c-35.29,23.36-69.46,48.32-101,76.69C8.57,714.48,4.25,717.63.1,721V374c5.3-13.28,15.39-23.23,24.18-34C48.15,310.86,76.48,286.56,108,266c7.78-5.08,15.44-10.53,24.33-13.49,2.74-.92,1.77-3,2.82-4.38a73.28,73.28,0,0,1,13.23-6.9c1.34.54,2.41,1.57,4.19.56,25.84-14.61,53.59-24.54,81.89-33C287.28,192.89,341.32,183.1,396,176.36c34.22-4.22,68.39-8.9,102.68-12.39,29.82-3,59.57-6.71,89.41-9.56C624,151,660,147,695.86,142.89c31.77-3.62,63.57-7,95.35-10.41,30.47-3.31,60.82-7.58,91.24-11.3q86.82-10.64,173-25.67,75.6-13.17,150.28-30.94c58.57-13.83,116.38-30.43,173.61-49,15.87-5.15,31.42-11.3,47.61-15.47Q1655.17.09,1883.4,0c3.75,0,4.61.84,4.6,4.59Q1887.79,98.32,1887.9,192.06Z"/><path class="cls-3" d="M426.06,1173.9a299,299,0,0,1,53.11-96.64c39.12-47.86,87.95-83.41,141.51-113.22,46-25.59,94.14-46.34,143.1-65.26,38.13-14.72,78-22,118.54-27.07,42.72-5.33,85.5-3.81,128.25-3.49,35.93.27,71.83,2.8,107.76,4,20.11.66,40.25,1.07,60.35,2.49,15.58,1.11,31.25-.9,46.88-1.6,23-1,45.81-3.47,68.58-6.62,27.79-3.85,54.81-11.28,82.16-17.15q102.17-22,202.46-51.3a1353.87,1353.87,0,0,0,175.72-64.68c44.16-19.89,86.11-43.69,126.88-69.69,2.1-1.34,4.36-2.44,6.54-3.65v360.94c-1.89,3-5,3.81-8.17,4.56-26.12,6.19-52.59,10.43-79,14.81-38.8,6.42-77.88,10.33-117,14.43-44.86,4.71-89.81,3.89-134.74,3.47-23.27-.22-46.59-1-69.81-2.9-26.88-2.13-53.83-2.93-80.73-4.64-24.4-1.55-48.8-3.28-73.24-4.45-40.59-1.93-81.18-3.7-121.8-2.67-61.19,1.56-122,6.71-181.59,22-56.44,14.48-109.65,36.38-157.95,69.4a468.67,468.67,0,0,0-44.46,34.74c-2,1.73-4.48,2.49-6.37,4.24Z"/><path class="cls-4" d="M1427,.09c-6.9,6.18-16,7.16-24.26,10.12-49.72,18-100.55,32.3-151.62,45.77-74.8,19.73-150.57,35-226.88,47.56-60.67,10-121.63,17.87-182.62,25.58-49.42,6.24-99,11.35-148.46,16.79C637.82,152,582.53,158.1,527.19,163.75q-84,8.56-167.65,20.4a856.82,856.82,0,0,0-137.8,31.24c-22.91,7.25-44.94,16.72-66.58,27.13-2.24,1.07-4.43,2.47-7.1,1.45-.79-.88-1.59-1.71-.6-3,.6-.78,1.25-1.53,1.87-2.31,1.82-2.27,4.84-4.56,2.35-7.7s-6-1.92-9.05-.3a138.26,138.26,0,0,0-20.14,12.72c-1.5,1.17-3.52,2.17-2.74,4.7,1.44,1.9,3.45,1.28,5.33,1.25,2.59-.27,5.14-.75,7.69-1.19,1.86-.32,3.52-.32,4.24,1.87.05,2.36-1.89,2.93-3.45,3.79-26.7,14.61-51,32.44-73.7,52.75C39.9,324.43,23.16,345,7,366.18,4.87,369,3,372,.1,374v-148c2.2-2.72,5.34-3.17,8.51-3.52,9.11-1,18.4-1.68,27.05-4.59,13-4.37,25.5-10.34,39.12-13a14.49,14.49,0,0,0,5.27-2.81c19.26-13.71,39.12-26.67,55.21-44.34a48.24,48.24,0,0,1,8-7.49c1.29-.89,2.79-2,4.53-.86,2,1.27,1.52,3.15,1,4.9-2,6.62-6,12.23-9.63,18-1.23,1.93-4.35,4.24-2.25,6.29,1.54,1.51,4.07-1.37,6-2.57a219.14,219.14,0,0,0,25.72-19.79c2.67-2.32,5-5,5.93-8.49a23.29,23.29,0,0,1,8.08-12.33c8.24-6.84,11.63-15.78,10.87-26.16-.46-6.31,1.79-10.44,6.79-14.15,10.2-7.58,14.35-18.91,17.38-30.69,3.12-12.13,4-24.63,5.85-37,1.1-7.41,2.34-14.8,3-22.26A7,7,0,0,1,229.08.09h8a5.64,5.64,0,0,1,2.25,6.22,10,10,0,0,0-.17,3.92c.22,1.35.66,2.61,2.17,3a3.05,3.05,0,0,0,3-1.27,17.66,17.66,0,0,0,3.59-5.86,15.86,15.86,0,0,1,4.14-6h16c1.66,1.43,2.5,3,1.89,5.38-1.12,4.35-2,8.75-4,12.8A37.88,37.88,0,0,0,263,24.64c-.66,2.27-2.45,5.23.62,6.61,2.76,1.24,4.52-1.51,5.85-3.57,4.32-6.69,6.39-14.23,7.74-22A8.69,8.69,0,0,1,280.07.09Z"/><path class="cls-5" d="M813,1173.9c2.15-4.72,6.12-7.88,9.91-11.07,29.71-25,61.69-46.49,96.77-63.28a547.19,547.19,0,0,1,122.76-41.61c34.27-7.29,68.92-11.64,103.87-14.22a1175.87,1175.87,0,0,1,119.31-2.55c32.41.91,64.85,2.16,97.23,4.47,24.89,1.78,49.8,3.49,74.76,4.45,26.1,1,52.14,3.65,78.24,4.5q33.68,1.11,67.41,1.48c42.7.43,85.15-2.4,127.61-6.75,53.09-5.44,105.7-13.67,158-24.12,6.37-1.27,12.68-2.84,19-4.27,0,49.49-.05,99,.1,148.47,0,3.75-.85,4.6-4.6,4.59Q1348.21,1173.84,813,1173.9Z"/><path class="cls-6" d="M229.08.09c-1.56,23.28-4.4,46.4-10,69.06-3,12.21-8.93,23-19.82,30.23a7.17,7.17,0,0,0-3.14,6.43c0,3.33.09,6.67-.18,10-.6,7.19-2.94,13.63-8.55,18.57-5.06,4.44-9.65,9.18-10.72,16.32-.3,2-2,3.42-3.45,4.8a209.76,209.76,0,0,1-37.39,28.22c-1.35.8-2.92,2.33-4.5.91s-.28-3.13.34-4.6c2.3-5.4,6-10,9-14.95,2.32-3.78,4.82-7.52,5.48-12.35-2.44-.32-3.53,1.37-4.64,2.59-16.59,18.26-36.42,32.58-56.38,46.78a48.37,48.37,0,0,1-22.51,8.85c-2.82.36-5.78.56-8.17,2.1-12.49,8-26.75,9.72-40.95,11.63-4.45.6-8.94.94-13.41,1.4v-28c1.3-1.33,2.95-2.66,0-4Q.1,99.19,0,4.32C0,.66.82,0,4.37,0Q116.72.18,229.08.09Z"/><path class="cls-7" d="M280.07.09c.14,9.93-2.85,19-7.42,27.67-1.74,3.3-4.08,6.16-7.68,7.53-3.88,1.47-6.71-.72-6.3-4.85a26.61,26.61,0,0,1,3.28-9.9A58.74,58.74,0,0,0,268.07.09Z"/><path class="cls-8" d="M252.08.09c-.34,6.08-3.16,11.05-7.07,15.48-1.3,1.46-2.7,3.21-5,2.52s-2.61-2.81-3.19-4.7c-1.35-4.46.41-8.86.26-13.3Z"/><path class="cls-9" d="M.1,194.06c2.44.25,6.59-2,6.94.43.46,3-4.12,2.4-6.46,3.46a2,2,0,0,1-.48.11Z"/><path class="cls-7" d="M115.17,252.13c-3-2.78-.72-4.8,1.12-6.67,7.67-7.79,17.32-12.7,26.63-18.09a10.14,10.14,0,0,1,7.74-.76c5.77,1.43,7.31,5.07,3.91,9.87a92.11,92.11,0,0,1-6.51,7.49L137,250l-13,2.11A19.45,19.45,0,0,1,115.17,252.13Z"/><path class="cls-7" d="M49.05,246l-9,.09a59.65,59.65,0,0,1-15.85,0,28.86,28.86,0,0,1-12.6-2.6c-3.68-1.7-6.78-4.26-5.87-8.77.87-4.35,4.78-4.52,8.35-4.66,8.13-.32,16.42,1.06,24.4-.59,17.93-3.71,35.7-8.16,50.86-19.31,2.94-2.16,6-3.32,9.79-2.55,4.71,1,7.77-1.88,10.82-4.88,2.13-2.09,4.17-5.75,7.83-3.53,3.38,2,2.81,6,1.9,9.12-3.26,11.15-10.14,19.69-20,25.79-10,6.21-21.42,7.95-32.77,9.69-4.27.66-8.6.88-12.89,1.29C52.5,246.18,50.55,244.89,49.05,246Z"/><path class="cls-7" d="M163,183.13c1.09-5,5.06-7.72,8.54-10.73a138.25,138.25,0,0,1,12.21-9.51C200,151.8,209,136.31,212.34,117.21c1-5.51,2.41-10.74,6.78-14.64,1.88-1.67,3.79-3.59,6.57-2.74s3,3.67,3.42,6.14c2.86,16.7-2.36,30.82-13.64,43.06-11.83,12.85-23.35,26-36,38.13a33.59,33.59,0,0,1-7.07,5.5c-5,2.71-7.32,1.79-9.41-3.65A8.61,8.61,0,0,1,163,183.13Z"/><path class="cls-7" d="M250.16,127c-.69,5.93-1.16,11.92-3.81,17.41-2.89,6-7.42,10.14-13.92,11.87-3.86,1-5.33-.28-4.1-3.94,3.76-11.16,7.58-22.31,12.41-33.07.92-2.05,2.3-3.76,4.85-3.62,2.77.16,4,2.06,4.57,4.52A12,12,0,0,1,250.16,127Z"/><path class="cls-2" d="M24.18,246.13H40A31.08,31.08,0,0,1,24.18,246.13Z"/><path class="cls-2" d="M115.17,252.13H124A12.23,12.23,0,0,1,115.17,252.13Z"/><path class="cls-2" d="M250.16,127v-6.83A8.71,8.71,0,0,1,250.16,127Z"/><path class="cls-2" d="M163,183.13c0,2,0,3.92,0,5.88A7.21,7.21,0,0,1,163,183.13Z"/><path class="cls-2" d="M49.05,246l5-.9Z"/><path class="cls-10" d="M184.16,108.89c0-6.55,1.9-12.6,3.19-18.75s2.56-12,3.77-18.07a14.38,14.38,0,0,1,1.94-5.61c1.23-1.77,2.62-4.11,5.06-3.08s1.08,3.5.53,5.28c-2.57,8.47-4.68,17-4.62,25.93,0,1.87-.22,3.91-1.86,5C188.53,101.87,186.39,105.33,184.16,108.89Z"/></g></g></svg>