<svg xmlns="http://www.w3.org/2000/svg" viewBox="0 0 284.83 287.47"><defs><style>.cls-1{fill:#d7d7d7;}.cls-2{fill:#1d354a;}.cls-3{fill:#1d3549;}.cls-4{fill:#192c3d;}.cls-5{fill:#182c3d;}.cls-6{fill:#946db2;}.cls-7{fill:#efb8d9;}.cls-8{fill:#fff;}.cls-9{fill:#feffff;}.cls-10{fill:#fefefe;}.cls-11{fill:#946db1;}.cls-12{fill:#cd9bc7;}.cls-13{fill:#eeb8d9;}.cls-14{fill:#eeb7d9;}.cls-15{fill:#192c3e;}.cls-16{fill:#7db148;}.cls-17{fill:#69943c;}.cls-18{fill:#a7ca78;}.cls-19{fill:#070707;}.cls-20{fill:#7c5c9f;}.cls-21{fill:#070607;}.cls-22{fill:#0e0e0d;}.cls-23{fill:#b9314f;}</style></defs><g id="Calque_2" data-name="Calque 2"><g id="Calque_1-2" data-name="Calque 1"><g id="Calque_2-2" data-name="Calque 2"><g id="Calque_1-2-2" data-name="Calque 1-2"><g id="jMrH20.tif"><path class="cls-1" d="M109,287.47a16.76,16.76,0,0,0-6.27-1c-12.67.8-24.76-2.52-36.92-5.24a31.15,31.15,0,0,1-11.34-5.12c-3.57-2.54-3-7.36.79-9.71,7.89-4.85,16.75-6.12,25.5-7.88,6.65-1.34,13.45-1.36,20.17-2,.74,2.18-1,3-2.34,3.71A23.1,23.1,0,0,1,93,262.17,6.41,6.41,0,0,0,89.51,264,6,6,0,0,0,88,270.26c.75,2.17,2.89,2.46,4.76,2.49a56.78,56.78,0,0,0,18-2.23c2-.63,3.66-1.63,3.72-4.09a1.5,1.5,0,0,1,.72-1.25,4.14,4.14,0,0,1,2.68-.37c4.47,1,9,.83,13.55,1.22.61.23,1,.72.76,1.32-1.14,2.76.77,4.42,2.14,6.3.46.62,1.64,1,.93,2.12-2.77.84-5.61.22-8.42.4-.66.05-1.33,0-2,0-1.38.07-3.13-.27-3.46,1.61-.3,1.68,1,2.8,2.34,3.47a10.8,10.8,0,0,0,4.74,1.45c8-.1,16,.76,23.9-.52,6.28-1,12.6-2,18.32-5.19a25.94,25.94,0,0,0,9.41-9,.68.68,0,0,1,.77,0c3.75,2.24,1.62,6.52-1.37,8.48-7.8,5.14-16.85,5.94-25.56,8a82.24,82.24,0,0,1-22.44,2,14,14,0,0,0-5.51,1Z"/><path class="cls-2" d="M179.35,287.47a2.14,2.14,0,0,1,.46-2.69c4-4.73,9.35-7.61,14.59-10.58,2.17-1.24,4.64-1,7.07-.13a2.06,2.06,0,0,1,1.46,2.52,2,2,0,0,1-.26.6,10.74,10.74,0,0,1-4,4.57,44.43,44.43,0,0,1-9,4.21,8.62,8.62,0,0,1-2.61.5c-.88,0-1.88-.19-2.25,1Z"/><path class="cls-3" d="M30.86,95.73a5.37,5.37,0,0,1,3.81-2.08C38.67,93,42.28,91.42,46,90c2.38-.89,2.59-1.57,1.46-3.89q-2.73-5.58-5.32-11.23a11.73,11.73,0,0,1-.56-2.19c1.31.26,1.62-1,2.21-1.62A117.34,117.34,0,0,1,84,41.92c2.52-1.12,2.84-.77,3.09,1.95.41,4.48-2.14,7.61-4.67,10.68-2.88,3.48-6.71,5.94-10.24,8.7a135,135,0,0,0-11.28,9.81A36,36,0,0,0,52.6,85.6c-1.52,3.88-2.89,8.3-2.38,12.88C55,97,58,93.57,60.63,89.79a74.36,74.36,0,0,0,5-7.4c3.21-6,9-9.36,13.63-13.82C81,66.91,82,64.73,83.52,63c3-3.49,7.38-5,10.8-7.81a8.14,8.14,0,0,0,2.52-3.06,37,37,0,0,1,6-10.58A42.4,42.4,0,0,1,110,34.59c1.1-.93,2.51-.8,3.75-1.08,3.12-.69,6.38-1.71,9.47-1.39,4.56.46,7.49,2.93,6.82,7.79-.12.88-.46,1.88-1.27,1.93-1.58.08-2.23,1.24-3.19,2.1-1.16,1-2.2,2.24-1.35,3.74a4.61,4.61,0,0,0,4,2.27c5.25.21,10.31-1,15.44-1.77a95.8,95.8,0,0,1,25.65-.6c5.66.63,11,2.16,16.43,3.33a5.23,5.23,0,0,1,3,1.82c4.81,6.08,10.47,11.31,16,16.64,3.95,3.79,7.45,7.86,9.69,12.93,1.2,2.74-.2,9.5-2.44,11.22-.77.59-1.63,0-2.46.41,3.67,5.92,6,12.46,7.91,19,1.37,4.58,1.27,9.61,1.82,14.44.41,3.64,1.55,6.9,4.5,9.32,1.54,1.25,3.06,1,3.91-.75,1.55-3.28,1.39-6.7.61-10.1-.41-1.75.77-7.38,2.05-8.6a1.42,1.42,0,0,1,1.82-.29c2.25,1.42,4.28,3,4.94,5.87,1.42,6.12,2.25,12.37,3.74,18.45,1.4,5.72.61,11.39.77,17.07.06,2.23-.71,4.54-1.19,6.76a36,36,0,0,0-.74,6.12,58.75,58.75,0,0,1-1.77,11.19,63.22,63.22,0,0,1-5.64,14.93c-1.9,3.44-5.16,5.34-8,7.74-1,.83-1.38-.59-1.4-1-.07-2.7-.77-5.44.41-8.07.13-.3.41-.61.37-.89-.51-4.1,1.64-7.52,2.86-11.18a5.19,5.19,0,0,0-4.87,4.31c-.87,4.51-2,9-2.91,13.48-1.16,5.63-2.29,11.29-3.17,17-.57,3.76-.53,7.58-1.33,11.31a6.75,6.75,0,0,1-1.83,3.69,117.69,117.69,0,0,1-24.94,18.34c.85-2.38,1-4.38,2.23-5.9,2.56-3.09,4.18-6.77,6.49-10,1-1.4,1-3.47,1.57-5.22.34-1.13-.72-1.54-1.22-2.12s-1.06.09-1.59.52c-1.15,1-2.68,1.12-4,1.72-2.75,1.25-4,4-5,6.4-2.49,6.05-5.29,11.5-11.41,14.85-3.82,2.1-7.13,5.12-10.68,7.73-.32.75-.74,1.34-1.7,1.11-4.14-1.45-8.5-1.87-12.77-2.75-.57-.12-1.22-.15-1.55.45a2,2,0,0,0,.28,2.32,30.34,30.34,0,0,0,3,3c2.13,2,5.13,3,6.78,5.61,1.53,4.09.56,6.59-3.41,8.11-4.6,1.76-9.26,2.35-13.87-.1-1.7-.9-4-.37-5.31-2.3-1.9-1.11-2.74-3.14-4-4.78s.53-2.7.66-4.08c-1-1.25-.43-2.51,0-3.76a30.94,30.94,0,0,0,1.15-3c.35-1.6-.09-2.47-1.92-2.62a28.55,28.55,0,0,1-8-1.36c-.94-1,0-1.66.39-2.39,2.46-4,1.81-6-2.65-7.83l-.47-.18c-3.84-1.62-3.93-1.62-4.19,2.65-.15,2.57-.79,5.1-.55,7.7.07.7,0,1.4,0,2.1-.16,2.57.67,5.23-.7,7.69,0,4.34-1.2,5-5.54,6.06-5.62,1.43-11.27,1.63-17,1.86a5.2,5.2,0,0,1-5.32-2.94c-.89-1.85.39-5.8,1.89-7.19,2-1.9,4.76-1.94,7.17-2.84,2-.76,4.28-1.32,4.7-4a4,4,0,0,0,1.11-3.46c-.66-4.51,1-8.85,1-13.31a2.33,2.33,0,0,0-1.47-2.44c-4.74-2.58-9.53-4.2-15.12-4-3.55.16-7.14-1.27-10.8-1.47-1-.06-2-.24-2.41.73a2.86,2.86,0,0,0,.37,2.49c2,3.92,6.17,5.67,8.75,9,.85,1.1,1.61,2.24,2.36,3.39a1.62,1.62,0,0,1,.24,1.65c-.41.64-1.27.45-1.83.26-3-1-6-2.09-9-3.24-9.86-3.81-16.16-11.81-22.77-19.43A99.49,99.49,0,0,1,44,217c-1.1-1.63-2.94-2.68-3.36-4.88-.64-3.33-1-6.66.13-9.88A2.86,2.86,0,0,1,45.15,201c.64.48,1.59.27,2,1.21a9.59,9.59,0,0,0,1.71,2c.77-2-.46-3.75-1-4.84a14,14,0,0,0-5-5.84c-2.68-1.6-5.46-1-8.16-.68-2.3.27-4.55.91-6.9.76-.41,0-.94-.14-1.23.07-2.69,1.93-3.77,0-4.38-2-2.07-7.09-4.86-13.91-6.21-21.3a134.47,134.47,0,0,1-1.58-31.11c.18-3.71.36-7.68,1.72-11.4a7.67,7.67,0,0,1,9.29-4.39c3.87,1.25,4.53,3.93,4.81,7.4.41,5-1.4,9.84-1.12,14.85.11,2,.35,3.85,1.75,5.47,1.66-1.13,2-3.28,2.11-4.69.34-6.41,2.71-12.87.16-19.27a43.44,43.44,0,0,0-3.18-7.06c-1.46-2.31-1.17-5.24-1.8-7.86C26.71,106.38,29.84,101.23,30.86,95.73Z"/><path class="cls-3" d="M159.22,27.84c2.9,1.34,6.16.71,9.12,1.65a51.25,51.25,0,0,0,14,2.56c2.81.09,5.48,1.39,8,2.65,4.22,2.08,7.36,5.63,11.14,8.3,2.62,1.85,4.13,4.52,5.93,7a2.34,2.34,0,0,1,.22,2.57c-.64.9-1.41-.37-2-.37-2.44,0-3.4-2-4.55-3.44a4.21,4.21,0,0,0-2.56-1.63c-7.61-1.35-14.86-4.19-22.46-5.5A31.59,31.59,0,0,1,168,39.34a7,7,0,0,0-3.42-.38c-4.42.19-7.5-2.19-10.22-5.24-.86-1-.23-2.25-.39-3.37-.28-1.93,1.33-1,2.08-1.48A5.24,5.24,0,0,1,159.22,27.84Z"/><path class="cls-3" d="M242.72,210.89a26.17,26.17,0,0,1-5.89,17.26A297.62,297.62,0,0,1,214.92,252a31.8,31.8,0,0,1-3.89,3.07,3.38,3.38,0,0,1-3.72.14c-1.31-.76-2.09-4.87-1.23-6.11,1.73-2.48,3.49-4.9,6.19-6.58a49.3,49.3,0,0,0,13.81-12,31.59,31.59,0,0,0,5.76-12.38c.61-2.93,2.13-5.64,2-8.78-.06-1,4.86-5.6,5.79-5.63a2.13,2.13,0,0,1,2,1.65C242,207.28,243.39,209.11,242.72,210.89Z"/><path class="cls-3" d="M84.66,22.92c3-.7,6.94.71,10.92,1.13.84.09,2.16.79,2.28,1.4.21,1.14-1,1.27-2,1.62-4.63,1.66-9.47,2.25-14.22,3.28-9.34,2-17.14,6.36-23.16,13.89A23.16,23.16,0,0,1,49,51.73c-1.22.46-2.64.71-3.85-.61a3.87,3.87,0,0,1-.53-4.75,17.4,17.4,0,0,1,4.21-5.32,189.26,189.26,0,0,1,16.6-14,19.14,19.14,0,0,1,8-3.31A90.37,90.37,0,0,1,84.66,22.92Z"/><path class="cls-2" d="M284.64,60c0,8.58-4.41,14.52-11.25,18.16a22.7,22.7,0,0,1-13.49,2.65c-4.65-.49-8.29-2.9-11.37-6.63-2.59-3.14-3.92-6.68-5.3-10.3a4.23,4.23,0,0,1-.47-1.12c-.44-4.27-.51-8.46,1.08-12.61,1.34-3.49,2.66-7,5.9-9.07,4.13-2.6,8-6.41,13.58-5.1a20.86,20.86,0,0,1,8.56,4,53.5,53.5,0,0,1,10,10C284.08,53.07,285.35,56.64,284.64,60Z"/><path class="cls-3" d="M269.68,139.5c-.08,2,.65,4.51.59,6.87a90.49,90.49,0,0,1-.88,9.44c-.41,2.94-2,5.5-2.87,8.28-.78,2.44-2.91,4.17-5.15,5.47-1.37.8-2.25-.54-3.19-1.16s-.59-1.66-.3-2.5c1.24-3.7,3.48-7,4.49-10.78a37.17,37.17,0,0,0,.68-17.32c-.48-2.31-1.29-4.86.56-7,1.62-1.87,4-1.24,5.09,1S269.64,136.57,269.68,139.5Z"/><path class="cls-2" d="M218.36,42.94a12,12,0,0,1-8.91-4.62,56.25,56.25,0,0,0-6.31-6.69c-1.77-1.52-2.13-3.68-3.25-5.48-.42-.68.25-1.16.76-1.61,1.11-.95,2.21-.61,3.39-.18,5.42,2,9.41,6,13.81,9.47,1.8,1.41,3.44,2.88,4.11,5.29.47,1.71-.31,3.61-2.1,3.81A12.53,12.53,0,0,1,218.36,42.94Z"/><path class="cls-2" d="M253.7,217.73c-1,5.5-.78,11.37-5.77,15.5-1.56,1.28-3.46,1.19-5,2.24-.55.37-1.28,0-1.22-.95a9,9,0,0,1,.42-3.17c2.1-5,3.24-10.44,6.17-15.13a2.76,2.76,0,0,0,.39-1.15c.11-1.64.72-2.79,2.58-2.47a2.85,2.85,0,0,1,2.41,2.89C253.75,216.27,253.7,217,253.7,217.73Z"/><path class="cls-1" d="M162.38,260.93l1.5-.92a1.48,1.48,0,0,0,1.31,1c3,.32,5.81,1.58,8.67,2.54a.63.63,0,0,1,0,.74,7.86,7.86,0,0,1-3.11,2c-3.37,1.46-7,2.14-10.44,3.28a3.6,3.6,0,0,1-2.91.1c-1.93-1.93-4.71-2.79-6.39-5a1.29,1.29,0,0,1,1.05-.58c3.43,0,6.35-1.61,9.36-2.94A1.46,1.46,0,0,1,162.38,260.93Z"/><path class="cls-2" d="M173.75,264a2.26,2.26,0,0,1,.11-.43c1.8-1.71,3.68-3.35,5.36-5.16a1.94,1.94,0,0,1,2.38-.69,2.33,2.33,0,0,1,1.3,2.17,10.25,10.25,0,0,1-1.38,5.83,3.73,3.73,0,0,0-.68,2.33l-.46.07C178.3,266.49,175.75,265.67,173.75,264Z"/><path class="cls-3" d="M41.08,238.39c.23,2-.18,3.76.84,5.55.85,1.47-.63,3.13-1.28,4.43-.42.83-2.34,0-3.43-.84-4.62-3.72-8.34-8.31-12.09-12.84a142,142,0,0,1-15.09-22,7.39,7.39,0,0,1,1.73-9.5A2.31,2.31,0,0,1,15,203.1l.18.18c1.42,1.29,2.78,2,4.82.58s6.45.78,6.9,3.69,2,4.86,3.24,7.13c2.64,4.88,6,9.42,8.26,14.45C39.78,232.06,42.13,235,41.08,238.39Z"/><path class="cls-3" d="M12.2,100.88l5-.06a2.58,2.58,0,0,0-.17.91c.88,5.4-.53,10.06-3.75,14.55C10.66,120,8.61,124.13,9.16,129a8.59,8.59,0,0,1-.74,5.09,4.48,4.48,0,0,0,0,3.41c1.35,4.48.67,9.07.7,13.61,0,2.49-2.25,4.37-4.14,3.48a5.28,5.28,0,0,1-2.77-4.18c-.34-2.77-1.13-5.43-1.72-8.14a29.2,29.2,0,0,1-.2-9.42A49,49,0,0,1,5.56,115c2.46-4.6,4.89-9.43,9.4-12.69C14,101.42,12.51,102.39,12.2,100.88Z"/><path class="cls-4" d="M173.75,264c2.08.43,3.79,1.65,5.62,2.61a1.72,1.72,0,0,1,1,1.51c-1.84,4.68-5.55,7.32-9.85,9.6-8.16,4.34-17,5.49-26,5.77-5.31.17-10.63.15-16,0a9,9,0,0,1-6.91-2.88c-.74-.87-1.91-1.79-1.46-2.94a3.3,3.3,0,0,1,3.6-2.18c3.81.21,7.64,0,11.46,0a55.43,55.43,0,0,0,7.65,2.57c4.91,1.41,10.11,1,14.21-2.75,1.66-1.52.65-3.72.24-5.63A128.13,128.13,0,0,0,171,265.47,19.63,19.63,0,0,0,173.75,264Z"/><path class="cls-5" d="M122.77,255.43c3.27.21,6.45,1.23,9.75,1.1,1.09,0,1.42.52,1.43,1.52a6.4,6.4,0,0,1-.67,3.33,9.09,9.09,0,0,0-1.35,5.18c-5.69.47-11.27-.91-16.93-1v-8.09c2.19-.82,4.59-1,6.67-2.12A1.22,1.22,0,0,1,122.77,255.43Z"/><path class="cls-6" d="M169.87,151.54c0,7.9.23,15.81-.05,23.7-.38,10.28-1.19,20.55-1.76,30.83-.45,8.29-.89,16.59-1.18,24.89-.07,2-.53,2.69-2.65,2.66-9-.12-18,.32-26.94-.15-13.86-.71-27.75-.54-41.6-1.08-7.8-.31-15.66-.77-23.45-1.79-1-.14-1.17-.63-1.17-1.46,0-11.73-.7-23.51.26-35.15.73-8.82.34-17.58.74-26.35q1-22.27,2-44.55a2.12,2.12,0,0,1,1.87-2.34,2.44,2.44,0,0,1,.66,0c4.4.21,8.81.22,13.19.6,8.14.71,16.29.43,24.42.35,6.09-.07,12.09,1.87,18.12,1,10.22-1.51,20.57-.13,30.78-1.8,6.67-1.09,6.77-.85,6.77,5.69Z"/><path class="cls-6" d="M187.89,114.6c.35,4.24.83,7.92.9,11.61.14,6.89.1,13.8,0,20.69,0,3.73-1.39,7.35-1,11.12a1.33,1.33,0,0,1-1.06,1.51c-4.52.42-5.43,4.55-7.52,7.37-1.27,1.73-.1,5.34,1.84,5.59,2.8.36,3.84,2.5,5.16,4.25,2.6,3.43,1.58,9.16-1.79,11.85-1.17.93-2.24,2-3.4,2.92-4.26,3.47-5.28,7.11-3.06,12.06.78,1.74,1.68,3.42,3.78,4.31,3.19,1.35,3.74,2.65,3,6.16-.89,4.2-1.54,8.4-2.07,12.66a8.86,8.86,0,0,1-5.11,7.26,12.92,12.92,0,0,1-5.68,1.65,2.6,2.6,0,0,1-3-2.18,2.22,2.22,0,0,1,0-.63c0-9-.43-18.11.67-27.14a19.13,19.13,0,0,0,.23-2c.05-11.62,1.7-23.2,1.05-34.83a19.76,19.76,0,0,1,.72-6.4,14.17,14.17,0,0,0,.15-5.69c-1.59-11-1-22-.35-33,.11-1.76,1-2.32,2.7-2.78C178.84,119.73,183.91,119,187.89,114.6Z"/><path class="cls-7" d="M198.27,188.3c3.21,2.32,3.36,3.61,1.11,6.73a32.58,32.58,0,0,1-2.85,3.76c-.48.5-1,1.1-.17,1.65.65.44,1-.09,1.62-.51,1.05-.76,1.54-2.49,3.27-2.22-.23,3-1,5.76-4,7.25a4.28,4.28,0,0,0-.75.58c-1.35-3-4.37,1.16-5.84-1.38a18.64,18.64,0,0,0-1.42-1.77c-.58,2.06-.59,2.08.93,3.74.28.31.67.55.57,1-.16.7-.77.45-1.22.47-2.3.15-4.18-.32-4.83-3a3.69,3.69,0,0,0-1.84-2.11v2.64c-4.83-2.16-5.68-8.58-.61-11.91a17.18,17.18,0,0,0,6-6.79c.76-1.66,2.94-4.12.64-6.46,0-5.73-4-8.21-8.45-10.3a1.16,1.16,0,0,1-.34-2c1.67-1.95,3.42-3.85,5.25-5.65.76-.74,2-.46,2.86-.26,6,1.32,10.85,4.58,13.28,10.26,1.2,2.82,2.12,6.28,1.16,9.42A14,14,0,0,1,198.27,188.3Z"/><path class="cls-7" d="M146,252.16c-.32,2.85.52,5.81-.81,8.57-.34.7.27,1,.65,1.46,1.06,1.14,2.15,2.26,3.34,3.51L146,267.62c.52.56,1,1,1.7.56,2.85-1.73,5,.39,7.17,1.47,1.58.76,1.37,4.24-.11,5.23-3.52,2.35-7.28,1.95-11.09,1a23.41,23.41,0,0,1-6.93-2.32c-2.85-1.74-3.49-3.23-2.92-6.62.8-4.79,2.86-9.41,2.17-14.43a26.42,26.42,0,0,1,8.74-1.85C145.71,250.67,146.42,251,146,252.16Z"/><path class="cls-7" d="M113.91,253.53c-.25,4.38-.48,8.75-.74,13.12a2.17,2.17,0,0,1-1.48,2.08,13.7,13.7,0,0,1-7.64,1.77c-4.24-.36-8.3,1.33-12.57,1.06-1.72-.11-2.52-.37-2.49-2.34.06-4.41,1.08-5.65,6.49-6.68a18.33,18.33,0,0,0,8.4-4.29c.47-.4,1-.77.28-1.35-2.27-1.91-1-4.21-.73-6.4C107.12,250.81,111,250.54,113.91,253.53Z"/><path class="cls-8" d="M76.42,118.65a2,2,0,0,1,2.07-1.92h0a376.57,376.57,0,0,1,37.86-.92c14.21.31,28.4,1.2,42.62,1a39.8,39.8,0,0,1,8.61,1.21c-15.14,1.31-30.25,3.31-45.47,2.65S91.71,119.05,76.42,118.65Z"/><path class="cls-9" d="M177.53,114.81c-.56,2.43-2.23,2.12-3.74,1.91-6.17-.85-12.33-1.77-18.49-2.64a19.42,19.42,0,0,0-3.22-.26c-5.75.15-11.36-.88-17-1.84a5.59,5.59,0,0,0-1.22-.16c-9.74.63-19.39-1.33-29.12-1-5.56.17-11-1.6-16.6-1-.62.07-1.12,0-1.12-.88s.31-2,1.37-2c3.65,0,7.19-2,10.79-1,6.91,1.86,14,1.79,21,2.63,15.59,1.87,31.2,3.57,46.8,5.33C170.48,114.23,173.92,114.91,177.53,114.81Z"/><path class="cls-10" d="M180.81,110.33c-11.29-2.18-22.84-1.58-34-3.66-10.79-2-21.68-3-32.5-4.56-4.44-.64-8.93-.82-13.4-1.25-.77-.08-2,.44-1.87-1.18s1.41-1,2.07-.87c7.19,1.34,14.51,1,21.76,1.75,7.6.74,15.17,1.69,22.72,2.73,10.43,1.45,20.83,3,31.25,4.5C178.54,108,179.56,109.31,180.81,110.33Z"/><path class="cls-10" d="M94.9,103.54a6.29,6.29,0,0,1,3.41-.73c8.9-.11,17.69,1,26.53,1.72,10,.86,19.63,3.17,29.51,4.33,8,.93,16,1.24,23.85,2.92.7.15,1.54-.12,1.92.89-6.58.55-13-.26-19.5-1.06q-20.52-2.53-41-4.79c-7.43-.81-14.89-1.32-22.33-1.91A2.76,2.76,0,0,1,94.9,103.54Z"/><path class="cls-11" d="M99.71,96c2.68-.52,5.31.57,8,.56.49,0,1,.24,1.47.23,6,0,11.94.78,17.88.88,8.3.15,16.31,1.79,24.42,3,5.49.79,10.9,2.18,16.5,2.25a10.69,10.69,0,0,1,2.88.68,23.81,23.81,0,0,0,6.79,1.35c2.66,0,5.06,1.42,7.37,2.56,2.64,1.31,2.73,4.9.39,6.77-1.49,1.2-2.85,2.82-5.28,2.51.68-1.78,2.93-2.24,2.88-4.65-.06-2.77-1.7-4.12-3.52-5.11a18.48,18.48,0,0,0-8.78-2c-6.8.06-13.36-1.29-20-2.2-8.62-1.17-17.33-1.93-25.87-3.57-8-1.52-16-1.08-24-2.37l-1.16-.18Z"/><path class="cls-12" d="M113.91,253.53c-3.21-2-7.09-1.67-10.48-3,.52-4.92,1.09-9.84,1.55-14.77.1-1.08.6-1.18,1.43-1.17,2.32,0,4.64.1,7,0,1.53-.08,1.74.57,1.67,1.9C114.75,242.15,114.63,247.86,113.91,253.53Z"/><path class="cls-12" d="M146,252.16c-1.41-1.91-3.33-.67-4.71-.33a22.2,22.2,0,0,1-5.24.72c.3-5.28.64-10.55.89-15.83.05-1.1.62-1.16,1.44-1.16,2.32,0,4.64.08,7,0,1.37-.06,1.62.5,1.64,1.73a51.4,51.4,0,0,1-.79,11.35C145.9,249.85,147,251.05,146,252.16Z"/><path class="cls-13" d="M70.32,160.26a9,9,0,0,1,.75,4.22c0,6.35.31,12.72-1,19-.08.37.18.86-.35,1.07s-.73-.2-1.07-.42c-1.48-.95-1.56-2.64-2.12-4-2.58-6.4-2-14.75,2.8-19A11,11,0,0,1,70.32,160.26Z"/><path class="cls-10" d="M140.16,114.6c-10.12.9-19.62-.75-29.17-.83a198.24,198.24,0,0,0-28.62,1.36c.34-2.75,1.66-3.4,3.92-3.4,5.15.16,10.32.23,15.47,0,9.89-.42,19.68,1.58,29.59,1.14C134,112.79,136.82,113.92,140.16,114.6Z"/><path class="cls-14" d="M69.9,194.88c-.21,3,.92,6-.77,8.85-1.21,2-1.78,2.17-3.92,1-3.2-1.76-4.22-4.8-5.06-7.91-.57-2.09,1.88-5.09,4.11-5.09,1,0,1.73-1.51,2.8-.2.4.49,1.17.75.78,1.55s-1.07.62-1.74.44-1.45-1.77-1.93-.11c-.38,1.32.93,2,2,2.18A4.47,4.47,0,0,0,69.9,194.88Z"/><path class="cls-15" d="M162.38,260.93A17.49,17.49,0,0,1,151,264.56c-1.74-1.56-4.36-2.44-4.11-5.53.08-1,.39-1.68,1.45-1.48,4.59.87,9.17,1.79,13.74,2.73C162.23,260.31,162.29,260.73,162.38,260.93Z"/><path class="cls-1" d="M115,255.51l7,.07a8.86,8.86,0,0,1-7,1.89Z"/><path class="cls-16" d="M244.8,62.4a28.9,28.9,0,0,1-.11-8.46c.12-.84.13-1.62.93-2.13,2.37-.92,4.51.41,6.71.83a26.72,26.72,0,0,0,11,0,3.23,3.23,0,0,1,.71-.2c4.31.06,8.5-1.1,12.79-1.24a4.13,4.13,0,0,1,2.83.69c2.06,1.5,1.64,4,2.5,6-1.22,1-2.8,1-4.21,1.36-5.75,1.55-11.35,3.68-17.21,4.81a30.07,30.07,0,0,1-13.8-.21A2.73,2.73,0,0,1,244.8,62.4Z"/><path class="cls-17" d="M244.8,62.4c5.51,2.13,11.06,2,16.75.67,6-1.36,11.82-3.24,17.68-5a11.15,11.15,0,0,1,3-.11c.86,1.45.32,3,.34,4.53-1.79,2.78-4.78,4.07-7.63,4.7-3.86.86-7.21,2.87-11,3.83-4.55,1.14-9,2-13.71,1.4-1.57-2.77-4.12-4.92-5.07-8.09A3.49,3.49,0,0,1,244.8,62.4Z"/><path class="cls-17" d="M279.71,51.88c-5-.48-9.91,1-14.91,1.3-2.84.15-5.8.65-8.73.73s-5.72-.92-8.51-1.75a16.11,16.11,0,0,0-1.94-.35c.84-3,1.94-5.9,4.54-7.92a4.33,4.33,0,0,1,2.59-.58c4.81,1.79,9.81,2.09,14.9,2,2.47-.06,4.85,1,7.32,1.22.62.11.92.69,1.44.94C277.44,49,279,50.11,279.71,51.88Z"/><path class="cls-16" d="M250.2,72.37c1-.9,2.22-.47,3.33-.46a40.62,40.62,0,0,0,16.33-3.86c3.28-1.43,7-1.73,10-3.91a10.41,10.41,0,0,1,2.68-1.7c-.08,2.61-1.46,4.8-2.8,6.8a21.57,21.57,0,0,1-10.24,8.28,16.12,16.12,0,0,1-10.63.73C255.11,77.13,252.67,74.94,250.2,72.37Z"/><path class="cls-16" d="M275.19,46.91c-7.44-1.5-15.31.13-22.53-3-.52-.48-1.6-.11-1.75-1.15a13.54,13.54,0,0,1,7.85-3.82c6.65-.87,11.34,2.77,15.9,6.75C274.79,46.12,275.44,46.32,275.19,46.91Z"/><path class="cls-18" d="M275.19,46.91c-.17-.41-.35-.81-.53-1.22a3.76,3.76,0,0,1,1.75,1.75Z"/><path class="cls-19" d="M80,163.73c0-2,.08-3.34,0-4.66a2.32,2.32,0,0,1,2.08-2.55h.07c1-.07,1.93.94,1.9,2.42-.1,3.78,2.1,6.89,3.25,10.31.55,1.62,3.85,2,5.79,1,3.78-1.84,5.92-5,7.22-8.84.21-.63.41-1.26.65-1.88.69-1.74,1.91-3.23,3.83-2.67s1.34,2.73,1,4.1c-1.1,4.77-2.93,9.3-6.54,12.76-1.4,1.33-2.78,3.08-5.07,2.94-1.18-.11-1.89,1-3.18,1-3.82,0-8.34-3.55-10-7.77A14.9,14.9,0,0,1,80,163.73Z"/><path class="cls-20" d="M99,193.5c0,3.72-3.86,8.34-8.6,8.23-3.72-.09-8.67-4.21-8.49-8.67.17-4,4.51-8.71,8.75-8.45A9.24,9.24,0,0,1,99,193.5Z"/><path class="cls-20" d="M151.4,202.63a8.29,8.29,0,0,1-8.47-8.13v-.09c0-4,4.73-8.9,8.75-8.71,3.61.17,8.33,3.57,8.23,8.77C159.82,199.32,156.45,202.63,151.4,202.63Z"/><path class="cls-19" d="M139.93,164.48a17,17,0,0,1,0-2.85c.18-1-.59-2.83.54-2.67A4,4,0,0,1,144,161.5a21.87,21.87,0,0,0,6.11,9.62,1.85,1.85,0,0,0,2.61.18l0,0c2.13-1.67,4.14-3.43,4.93-6.23.64-2.28,2.53-3.83,3.79-5.76.34-.52.92-.85,1.47-.32a2.79,2.79,0,0,1,.87,2.94A43.1,43.1,0,0,1,159,173c-2.95,4.53-12.09,6.09-15.45,2C141,171.85,139,168.25,139.93,164.48Z"/><path class="cls-21" d="M109.9,184.29c-1.62-3.37-.73-5,3.16-6.6,3.26-1.32,6.56-1,10-.36,2.21.44,3.93,1.07,5.13,2.7.43.57.94,1,.83,1.72a3.11,3.11,0,0,0,1,2.4,27,27,0,0,0,4-4.16,4.08,4.08,0,0,1-3.81-.93c-1.73-1.66-4.23-2.18-6.35-3.2-3-1.51-10.58-.54-13.08,1.46-1.81,1.44-3.57,3.12-6.61,2.76-.52-.05-.93,0-1.09.56s.06.69.51.69C106.16,181.26,107.46,183.14,109.9,184.29Z"/></g><ellipse class="cls-8" cx="92.59" cy="157.08" rx="16.12" ry="9.71" transform="translate(-73.18 233.03) rotate(-84.1)"/><ellipse class="cls-8" cx="151.82" cy="157.92" rx="16.12" ry="9.71" transform="translate(-20.87 292.7) rotate(-84.1)"/><ellipse class="cls-22" cx="154.25" cy="160.26" rx="5.67" ry="9.14"/><ellipse class="cls-22" cx="94.9" cy="158.7" rx="5.67" ry="9.14"/><circle class="cls-8" cx="96.81" cy="154.49" r="1.07"/><circle class="cls-8" cx="155.93" cy="155.56" r="1.07"/></g></g><g id="IWC5oL.tif"><path class="cls-23" d="M28.28,27.29a12.4,12.4,0,0,0-.09-2.79,23.92,23.92,0,1,1,41.12,16,8.44,8.44,0,0,0-2.64,6.23,10,10,0,0,0,.18,1.53,1.89,1.89,0,0,1-1.56,2.45l-6.1,1.54-5.88,1.48a1.9,1.9,0,0,1-2.68-1.68A24.47,24.47,0,0,1,57,29.26a7.24,7.24,0,0,0-6.57-12.38A7.23,7.23,0,0,0,45,25.29c.32,1.55-.14,2.33-1.67,2.72-3.91,1-7.84,2-11.75,3a2.68,2.68,0,0,1-2.54-.58Z"/><path class="cls-23" d="M62.67,71.39A6.13,6.13,0,0,0,61,71.24a8.33,8.33,0,1,1,4.58-.74c-.12.06-.31,0-.34.25Z"/></g><g id="IWC5oL.tif-2" data-name="IWC5oL.tif"><path class="cls-23" d="M193,71.24a6.85,6.85,0,0,0,.9-1.32c3.19-4.62,9.59-6.8,15.87-5.39,8.56,1.93,14.35,9.33,13.17,16.81-.86,5.4-5.43,9.55-11.56,10.44a5,5,0,0,0-3.6,2,4.81,4.81,0,0,0-.42.77c-.32.69-.87.9-1.71.59-1.31-.46-2.62-.94-3.93-1.42l-3.78-1.37c-1-.36-1.28-.9-.93-1.72q3-7,11.35-8.36A4.13,4.13,0,0,0,212,79.48c.65-2-.81-4.46-3.12-5.3s-5,0-5.88,2c-.35.83-.88,1-1.86.68-2.53-.91-5-1.84-7.58-2.74A1.85,1.85,0,0,1,192.35,73Z"/><path class="cls-23" d="M197.1,103.8a4.58,4.58,0,0,0-.9-.67,4.68,4.68,0,0,1-1.34-6.29c1.27-1.91,4.09-2.58,6.58-1.56s4,3.46,3.5,5.72c-.54,2.43-3.09,3.89-5.93,3.4-.09,0-.19-.09-.28,0Z"/></g></g></g></svg>