<svg xmlns="http://www.w3.org/2000/svg" viewBox="0 0 426.59 472.65"><defs><style>.cls-1{fill:#f5abd4;}.cls-2{fill:#f15355;}.cls-3{fill:#9060ac;}.cls-4{fill:#f05455;}.cls-5{fill:#efbc40;}.cls-6{fill:#ddb562;}.cls-7{fill:#1e425e;}.cls-8{fill:#b16f7c;}.cls-9{fill:#632332;}.cls-10{fill:#c49ebc;}.cls-11{fill:#f5c03d;}.cls-12{fill:#f6bf3d;}.cls-13{fill:#e95c56;}.cls-14{fill:#65a933;}.cls-15{fill:#65a932;}.cls-16{fill:#cbdfc2;}.cls-17{fill:#edf3ea;}.cls-18{fill:#eff5ec;}.cls-19{fill:#ccdccc;}.cls-20{fill:#6caa38;}.cls-21{fill:#6ea63a;}.cls-22{fill:#504512;}.cls-23{fill:#2a484d;}.cls-24{fill:#bfb98a;}.cls-25{fill:#454116;}.cls-26{fill:#fff;}.cls-27{fill:#9b62ab;}.cls-28{fill:#fefefd;}.cls-29{fill:#f6ad48;}.cls-30{fill:#f2c965;}.cls-31{fill:#f5b96b;}.cls-32{fill:#e34e4f;}.cls-33{fill:#c25c84;}.cls-34{fill:#c25a8b;}.cls-35{fill:#d05683;}.cls-36{fill:#fdfdfc;}.cls-37{fill:#f5c143;}.cls-38{fill:#b58090;}.cls-39{fill:#f5aad4;}.cls-40{fill:#232f3d;}.cls-41{fill:#222f40;}.cls-42{fill:#f2ab4d;}.cls-43{fill:#f3add1;}.cls-44{fill:#d2c88e;}.cls-45{fill:#d1d979;}.cls-46{fill:#badd96;}.cls-47{fill:#1c3041;}.cls-48{fill:#1d3041;}.cls-49{fill:#1e3040;}.cls-50{fill:#c3557b;}.cls-51{fill:#f05355;}.cls-52{fill:#f6c03e;}.cls-53{fill:#1f2f42;}.cls-54{fill:#233143;}.cls-55{fill:#1f3043;}.cls-56{fill:#e8605c;}.cls-57{fill:#f6b59d;}.cls-58{fill:#203040;}.cls-59{fill:#3f3436;}.cls-60{fill:#fbf9fa;}.cls-61{fill:#fefefe;}.cls-62{fill:#190e15;}.cls-63{fill:#180d15;}.cls-64{fill:#f5b5a1;}.cls-65{fill:#292f3e;}.cls-66{fill:#242f3f;}.cls-67{fill:#0a0909;}.cls-68{fill:#0b0a0a;}</style></defs><g id="Calque_2" data-name="Calque 2"><g id="Calque_1-2" data-name="Calque 1"><path class="cls-1" d="M241.32,386.32c-16.26,1.81-32.32,4.9-48.47,7.46-17.79,2.81-35.56,5.73-53.34,8.61a1.81,1.81,0,0,1-.93-.24c-4.23-3.13-4.23-3.13-7,1.38-16.34,2.61-32.68,5.16-49,7.86-6.74,1.12-13.2-2.55-14.35-9.75-4.68-29.4-10.21-58.67-15.45-88a22.08,22.08,0,0,0-.9-2.79c.34-4.14-2.86-7.65-2.12-11.87a138.48,138.48,0,0,1-3.86-21.09l-2.85-20c4.31-2.86,8.85-2,13.41-.87,2,1,2.44,2.86,2.83,4.92,5,26.53,10.39,53,15.36,79.5,1.8,9.6,4,19.12,5.4,28.78.51,3.63,2.34,5.5,5.59,5.93,8.63,1.15,14.57,6.16,18.71,13.3,1.75,3,3.34,3.45,6.68,3.16,14.83-1.29,29.54-3.5,44.27-5.52,10.64-1.45,21.27-3.16,31.89-4.84,23.68-3.77,47.25-8.2,70.76-12.92,4.54-.91,9-2.24,13.61-2.87,2.86-.39,3.79-1.64,4.23-4.4,1.23-7.59,8.91-16.68,18.39-16.73,5.68,0,6.58-1.16,5.16-7-2.51-10.3-3.66-20.83-5.74-31.21-4.82-24-8.56-48.17-12.92-72.25-1.06-5.83-2.37-11.64-2.63-17.61,3.32-4.41,7.83-6.2,12.58-5,3.14,6.4,3.07,13.51,4.21,20.31,3,18.31,5.82,36.66,8.88,55,3.24,19.3,6.17,38.64,9.37,57.94,1,6,1.28,12.18,3,18.08,1.4,4.44.64,8.38-2.73,11.71-6.91,3.09-14.46,3.35-21.75,4.53-10.75,1.75-21.45,3.95-32.3,5.12a30.14,30.14,0,0,1-4.93.16c-2.51-.6-4.8.34-7.12,1.06A8.15,8.15,0,0,1,241.32,386.32Z"/><path class="cls-1" d="M30.17,187.11C27.64,171.42,25,155.75,22.6,140c-4-26.37-8.34-52.69-10.57-79.29,1.19-1.71,3.05-1.85,4.86-2.07C54.38,54,91.77,48.57,129.23,43.6,156.48,40,183.71,36.1,211,32.42q18.48-2.49,36.93-5.1c10.52-1.54,13.35.25,15.38,10.88,3.11,16.27,5.33,32.68,8,49,2.12,13.07,4.06,26.17,6.59,39.17.83,4.22-.2,8.68,1.92,12.66-.07,3.54-1.38,6.87-1.72,10.37-2.29,4.91-3.33,10.28-5.45,15.25-.54,1.27-.44,3.16-2.73,2.43-2.35-7.25-2.78-14.87-4-22.32-.72-4.56-1.51-9.13-2.32-13.67-2.87-16.11-4.9-32.36-7.5-48.51-.9-5.52-2.24-11-2.47-16.69-.11-2.53-.9-4.17-4.49-4.37A25.29,25.29,0,0,1,229,50.27c-1.08-1.55-2.17-2.38-4.07-2.08-13.73,2.13-27.6,3-41.39,4.67-10.49,1.26-21.06,2.06-31.56,3.33-12.79,1.55-25.6,3-38.39,4.51S88,63.9,75.17,65.11c-8.07.75-15.89,3.22-24.08,3.31-2.68,0-3.89,2.06-3.79,4.85.18,4.63-1.64,8.76-3.63,12.79a17.84,17.84,0,0,1-11.76,9.29c-4.14,1.12-4.25,3.29-3.53,6.57,3,13.42,5.15,27,7.86,40.48,4.12,20.45,7.65,41,11.83,61.46a6.89,6.89,0,0,1-.61,5.32c-1.24,1.39-2.86,1.52-4.56,1.32-1.77-.36-3.5-.8-4.34-2.67-2.83-5.13-5.23-10.48-7.76-15.76C30.1,190.6,28.54,189,30.17,187.11Z"/><path class="cls-2" d="M313,374.77c2.6-3.28,2-7.15,2-10.91a6.79,6.79,0,0,1,6.09-5.52,14.21,14.21,0,0,0,5.46.8c-1.27-1-2.95-1-3.78-2.29.13-4,3-5.68,6.12-7.19a32.19,32.19,0,0,0,12.87-3.58c3.37-2,.55-4.07,0-6.1,0-5.42-3.27-10.4-2.12-16,.53-2.21,3.18-4.32.31-6.71-.69-1-1.7-1.87-2.12-3.1-1.29-6.34-4-12.52-2-19.2,5.45-3,2.91-8.48,3.19-12.53-1.48.7-.54,2.58-.53,4.28,0,2.51.78,5.34-2.35,6.8a2.23,2.23,0,0,1-2.15-1.78c-.56-4.56-2.78-8.85-2.17-13.59a3.81,3.81,0,0,1,1.26-2.06c3.07-2.16,1.49-3.64-.68-5.07-.8-1.55-1.73-3-2.51-4.57a10.87,10.87,0,0,1,.23-7.78c2.21-2.54,4.43-1.46,6.51.14a13.28,13.28,0,0,1,4.69,5.9c-.44-.9-.32-2.6,0-4.26.68-3.33-.84-4.16-3.81-3.6-2.59.48-5.25.19-7.85.71-3.13-2.38-2.67-5.3-1.29-8.37,3.25-2.91,7.22-1.79,10.93-1.78s7.21,1,10.82,1.49c10.79,1.47,16.75-2.86,18.71-13.56.32-1.79.28-3.65,1-5.37a10.28,10.28,0,0,1,2.17-2.68c-.88.24-1.38,1-2.2,1.23-5.19-4.8-10.1-9.9-14.79-15.19a3.41,3.41,0,0,1-.48-2.86c1.77-3,3.8-1.56,5.69-.22,1.58,1.12,2.48,3,4.54,3.92-.32-1.18-.89-2.35.32-3.23,3.59,2.23,6,5.65,8.74,8.74,5.66,6.43,11.21,13,16.8,19.45-3.68,1.53-8.63-.22-11.36,5.71,3.32-5,8-3.55,11.8-5.09,2.28,2.17,4.88,4.08,6.09,7.16-1.2,1.07-2.24,2.13.11,3.09a8.1,8.1,0,0,0,3.77.88,38.46,38.46,0,0,1,9.89,10.14c-.45,4.42,2.93,5,6,5.93a6.37,6.37,0,0,1,4,4.05c-.42,3.15,2,3.86,4.13,4.9,1.07.76,2,1.61,1.59,3.12-1,1.65-1.21,4.08-4,3.76,1.36.29,2.77-1.25,4,.23a8.9,8.9,0,0,1-3.81,5.9c-1.87.76-3.27,1.83-2.78,4.17-.92,1.75-1.35,3.8-3,5.08-3.17-.34-4.18-2.24-3.57-5.14.31-1.48.72-2.88-.61-4.08-1.39-2-1.78-4.42-3.56-6.38-2.25-2.47-.79-5.24,4-8.51-7.59,4.19-6.83-4.36-10.56-6-4.35,2.9-10.91.24-12.1-5.11-.47-2.11,0-4.34-.72-6.42s-2.64-3.38-2.79-5.74c-.71,6.62-6.95,1.94-9.69,5.2,4.3,5.49,9.73,10.25,14.79,15.28,3.39,3.36,6.76,6.82,10.18,10.16a33.8,33.8,0,0,0,10.32,7.41c1.37,1.15,1,2.54.76,4.08A15.13,15.13,0,0,0,414.64,303q-2,5-4,10a11.68,11.68,0,0,1-5.07,4.41c.78,1.47,2.3.71,3.09,1.56-1.34,8.07-2.76,16.13-4,24.22-.78,5.21.17,10.64-1.82,15.73-1-.35-1.4-1.35-2.62-2.14.63,1.54,1.74,2.16,2.47,3.07a35.71,35.71,0,0,1-3.83,14.09c-6.78-2.55-8.23-7.77-8.08-14.46.11-4.78-1.21-9.58,1.35-14.11a5.13,5.13,0,0,0,.28-3.89c-.16-.64-.26-1.31-.46-1.94-1-3.26,1.61-5.66,2-8.47s-4-3.81-3.65-7.13c.18-1.68,0-3.81,1.42-4.59,4.54-2.42,5.73-7.1,8.05-11,1-1.71,2.56-3,4.31-4.91-3.58,0-6.54.35-9.5,0-4.91-.65-8.47-2.64-12.19-6.45s-6.69-8.69-12-11.35c-3.77-1.89-5.15-6.95-8.7-9.89-2.48-2.06-4.18-4.95-7.6-5.92-1.29-.37-2-1.68-2.47-3-.42,1.16.18,2.34-.13,3.46-1.32,4.74.32,7.31,4,11.09,5.24,5.34,12.86,10.64,11.21,20.35-.27,1.59.34,3.29.64,4.92.88,4.94,1.85,5.67,7.06,5.38,5.57-.31,7.95,1.91,8,7.46.06,7.25-4.46,14-10.29,15.34-5.12,1.18-8.72-.38-11.54-5.47a22.47,22.47,0,0,0-7.12-8.17c-1.48-1-2.91-1.6-4.4.07-1.72,1.92-2.07,9.62-.45,11.72,3.73,4.85,4,9,.79,14.09-2.84,4.51-2.72,4.79,2.51,5.41.66.08,1.55,0,1.92.37,4.5,5.11,12.85,7,13.26,15.48.21,4.33,2.14,6.07,6.44,6.18,6.81.18,13.59-.62,20.39-.45,1.62,0,3.34-.52,4.74.82-2.78,7.78-7.57,13.58-15.71,16.13-5.27-1-10.23-.76-14.1,3.65l-5,.34-.64-.27c-2.17-1.44-2.82-3.17-.84-5.7-4.5,1.83-7.8.61-10.17-3.25a5.41,5.41,0,0,0-2.28-2.55c-7.72-3-7.78-9.41-7.09-16.13a1.73,1.73,0,0,0-.17-1.44c-1.65.13-2.9,1.46-4.54,1.71-2.65.39-3.27,2.17-3.53,4.58-1,9.09-7.34,12.95-16.17,10.16C314.72,380.86,315.05,377,313,374.77Z"/><path class="cls-3" d="M248.18,28.74c-8.2,2.1-16.65,2.65-25,3.85C196.81,36.37,170.4,40,144,43.52,111,48,78,52.27,45.05,56.72c-11,1.49-21.91,3.51-33,4-2-2.17.37-3.72,1-5.31,3.76-9.72,9.65-17,19.93-21.29,7.17-3,14.47-3,21.67-4.22,18.11-3,36.35-5.14,54.55-7.55,17-2.26,34.13-4.37,51.18-6.65,13-1.73,25.9-3.69,38.85-5.45C215.6,8.05,232,6,248.43,3.75,255.64,2.78,263,2.21,270,.52c5.78-1.38,11.16.43,16.72.42,2.21,0,2.38,1.91,2.66,3.58,1.87,11.1,3.81,22.18,5.62,33.29,2.33,14.37,4.56,28.76,6.84,43.14q3.09,19.62,6.2,39.24c.29,1.78.84,3.53,1.27,5.29-.53,5.11-3.51,8.72-7.34,11.76a1.73,1.73,0,0,1-2.64-.24c-2.41-7.11-2.88-14.6-4-21.94-1-6.17-3-12.27-2.25-18.66,5.06-3.69,2.31-9.62,4-14.29.18-.49-.7-1-1.29-1.36-2.16-2.43-3-6-6.46-7.33-2.49-5.56-2.74-11.61-3.64-17.48-2-13-4.48-25.85-6.27-38.84-.57-4.15-2.34-5.17-6.31-4.62q-45.1,6.33-90.22,12.6Q116.28,34.32,49.71,43.55c-6,.84-9.53,5-13.88,8.37,8-.59,15.89-1.61,23.78-2.68,42.92-5.8,85.8-11.83,128.74-17.51,17.76-2.35,35.49-5,53.28-7.12a12.18,12.18,0,0,1,4.46-.12C248.35,25.08,249.73,26.22,248.18,28.74Z"/><path class="cls-2" d="M300.55,137.37l8.77-11.89c5.17,17.3,20.31,28.22,28.08,43.77,4.07,8.16,7.58,16.47,13.39,23.68,2.91,3.6,7,6.41,8.31,11.23-.34,3.92-2.32,5.62-6.27,4.63-4.41-3.45-7.66-8-11.43-12.08a14.27,14.27,0,0,1-1.14-1.62c-5.05-7-5.71-7.12-13-2.78-2,1.18-3.79,2.65-5.67,4-3.16,2.35-6.9,3.72-10.14,5.95a147.47,147.47,0,0,1-16.3,9.08c-1.61.72-3.15,1.92-5.08,1-3.72,1.51-7.67,2.52-10.92,5-1.13,1-2.48,1.66-3.68,2.57a171.85,171.85,0,0,1-19.23,6.63c-2.32.71-4.8,1.52-7.18-.05-1.82-3.33.68-5.44,2.18-7.83,9-3.82,18.49-6.39,27-11.28,6.43-3.68,12.87-7.36,17.91-13a130,130,0,0,1-27.05,16.45c-3.05,1.35-6.16,2.48-9.29,3.56-1.69.59-3.51,1.32-5.11-.33-.57-5.09,2.37-9,4.32-13.32A153.93,153.93,0,0,0,295.39,169c-5.09,5.15-10.48,10-15.74,15A64.46,64.46,0,0,1,268,193.23c-1.6.93-3.28,2.52-5.29.65-.43-4.45,2.61-7.87,3.61-11.95a49.24,49.24,0,0,1,5.49-13.44,8,8,0,0,1,.58-1.31c2.62-2.93,5.54-5.57,8.16-8.51,5.58-5.8,10.87-11.85,16-18.06C297.6,139.27,298.39,137.44,300.55,137.37Z"/><path class="cls-2" d="M398.67,374.8c-10,1.58-20,1.49-30.05,1-2.21-.11-2.64-1.38-2.78-3.28a65.38,65.38,0,0,0-1-7.36c-.48-2.62-11.68-11.43-14.09-11.24-1.81.15-4.17,2.08-5.25-.61-.87-2.16.09-4.54,1.61-6.38,4.3-5.22,4-8.55-1.13-13.31-.35-.32-.9-.87-.81-1.14,1.35-4-.38-8.54,2.11-12.28,1.72-2.59,3.69-3.29,6.56-1,3.27,2.6,6.55,5,8.06,9.15,1.23,3.42,3.87,5.82,7.51,5.35,3.94-.51,8.12-1.12,9.21-6.59.61-3.09,2.75-5.82,2.24-9.32-.54-3.7-2.12-5.38-6-4.26-5.51,1.57-8.22-.44-9.05-5.91a58.63,58.63,0,0,1-.9-11.36,4.9,4.9,0,0,0-2.23-4.7c-3-1.9-5.47-4.12-6.23-7.92-.34-1.69-2.06-2.45-3.89-2.56a3.82,3.82,0,0,1-3.8-4.78c1.47-4.68.8-9.47,1.47-14.2a2.53,2.53,0,0,1,2.59,2.73c0,3.2,1.57,4.5,4.66,4.34.64,0,1.81.17,1.85.42,1.06,5.86,8.63,6.54,9.76,12.33.18.91,1,2.48,1.39,2.44,7.29-.73,6.28,9.39,12.71,9.68.24,0,.57.39.69.68,3.71,9.48,11.74,7,18.9,6.75,1.66-.07,3.54-.93,4.36,1s-1.22,2.39-2.45,3.07c-3.47,1.94-4.7,5.39-5.89,8.79-.8,2.29-1.47,4.38-4.36,4.75-2.36.31-2.62,2.18-2.61,4.13s-.08,4.16,2.6,4.66c4.3.81,3.35,2.68,1.06,4.91s-3.26,4.89-1.32,8c.82,1.32,1.16,3.12.29,4.31-4.29,5.82-2.33,11.79-.73,17.78.08.31.33.73.21.9-3.52,4.83-2.35,6.16,3.49,5.55,2.13-.22,1,3,1.48,4.65A.79.79,0,0,1,398.67,374.8Z"/><path class="cls-4" d="M56.89,258.16l-13.83-.22c-2-3.88-1.85-8.28-2.7-12.41-2.45-11.9-4.3-23.92-6.35-35.9a21,21,0,0,1-.07-3c.23-.95,1-1.1,1.79-1.12A4.06,4.06,0,0,1,38.38,207a235.21,235.21,0,0,0,12.77,22.22C56.69,238,62,247,68.52,255.09a2.92,2.92,0,0,1,.52,2.83c-2.26,2.62-5.2,1.85-8,1.63C59.53,259.41,58.42,258.19,56.89,258.16Z"/><path class="cls-5" d="M12.88,150.8c-1.09-1.78-3.11-2.93-3.28-5.37-.14-2-2-1.55-3.34-2.11-2.81-1.23-6.54-2.26-3.94-6.83,1-1.78-.57-3.09-1.27-4.45-.79-1.53-1.94-3.09.09-4.24,1.8-1,2.57.66,3.36,2,.58,1,1.28,1.87,2.51,3.64-.45-3.62-.82-6.21-1.08-8.8-.12-1.16-.11-2.57,1.45-2.68,1.3-.1,2.08,1,2.33,2.19.39,1.94.71,3.9,1,5.87.89,6.44,3.8,12.52,3.43,19.19A2,2,0,0,1,12.88,150.8Z"/><path class="cls-6" d="M12.88,150.8l1.24-1.64Q20.95,166,27.81,182.79a41.21,41.21,0,0,0,2.36,4.31c2.47,7.06,6.43,13.4,9.49,20.16a1.45,1.45,0,0,1-2,.15l-1.8-1.13c-2-1.81-2.28-4.48-3.2-6.82a459,459,0,0,1-19.38-46.74A17.25,17.25,0,0,1,12.88,150.8Z"/><path class="cls-2" d="M391,239.79c-.29,2.4.17,5.94-3.83,2.31-1.6-1.45-2.7,0-3.74,1-1.19,1.18-2.44,2.37-4.12,2.6a2.64,2.64,0,0,1-3.27-2.26c-.29-2,1.21-1.41,2.29-1.46.48,0,1.17-.11,1.37-.43,2.85-4.42,6.72-4,10.86-2.39A.59.59,0,0,1,391,239.79Z"/><path class="cls-2" d="M352.9,207.25c3.91,2.66,4.25-1.83,6.2-3.09,1.19,2.93,4.55,4,5.87,6.82-.4,2.41,2.71,3.72,2,7-2.36-2.72-6-2.76-7.39-6.25a3.32,3.32,0,0,0-4.7-1.46C353.07,210,351.78,209.46,352.9,207.25Z"/><path class="cls-2" d="M368.86,394.58c2.39-6.42,9-8.14,14.1-3.65C378.54,393.24,374,395.18,368.86,394.58Z"/><path class="cls-2" d="M412.73,289c1.69.25,2.45,1.61,1.87,2.84-1.45,3,1,4.42,2.25,6.33.13,2-1.25,3.3-2.21,4.79-3-1.19-4.39-2.79-2.92-6.36C412.67,294.35,412.43,291.58,412.73,289Z"/><path class="cls-2" d="M416.77,267c-1.69,1.28-5,1-6.17-.79s-3.8-3.61.21-5.14A16.22,16.22,0,0,1,416.77,267Z"/><path class="cls-2" d="M400.92,250.92c-1.72,4.05-3.77.36-5.56.09a2.94,2.94,0,0,1-2.28-3.82c.91-3,2.66.68,4-.24A5.93,5.93,0,0,1,400.92,250.92Z"/><path class="cls-2" d="M408.66,319c-2.52,2.12-4.63,2.32-5.73-1.35-.28-.95,0-2.42,1.14-2.14,2.9.7,4.33-1.86,6.57-2.48Z"/><path class="cls-7" d="M45.91,277.91A117.19,117.19,0,0,1,49.77,299,42.09,42.09,0,0,1,45.91,277.91Z"/><path class="cls-8" d="M363.85,394.92l-.94.94a204.55,204.55,0,0,1-28,0,2.37,2.37,0,0,1,2.48-2.57c8.85-.35,17.79-2.11,26.47,1.23Z"/><path class="cls-9" d="M335.07,395.68l27.84.18c-6.24,2-12.68.23-19,1l-10.09-.28C333.87,395.8,334.18,395.35,335.07,395.68Z"/><path class="cls-2" d="M402.71,359.84h-.49c-2.39.06-4.4-.38-4.39-3.39,0-1.23.24-2.48,1.86-2.3,2.85.32,3.16,2.47,3.17,4.76A1.17,1.17,0,0,1,402.71,359.84Z"/><path class="cls-2" d="M424.91,275.94c-2.22,1.49-3.85,1-5.19-1.31-1-1.7-1.45-3,1.06-3.59A6.51,6.51,0,0,1,424.91,275.94Z"/><path class="cls-2" d="M426.49,283.05c-6.42,1.12-6.42,1.12-7.34-4.11,2.9,3.92,5.2,2.72,7.35.12C426.5,280.39,426.5,281.72,426.49,283.05Z"/><path class="cls-2" d="M419.9,293.12c-2.42-2.14-.13-3.58.92-5s1.6-.32,1.86.81C422.51,290.85,420.92,291.8,419.9,293.12Z"/><path class="cls-10" d="M32.69,199.46c1.37,2.13,3.15,4.07,3.2,6.82l-2,.38A21.76,21.76,0,0,1,32.69,199.46Z"/><path class="cls-2" d="M335.07,395.68l-1.23.93c-10.23,1-17.45,6.49-22.58,15.1-2.16,3.61-4.29,7.25-6.43,10.88-1.51,2-3.52,1.6-5.42,1-17.54-5.83-32.44-15.35-42.83-31-1.61-2.44-3.53-4.86-3.29-8.09L313,374.77c2.41-.53,5-1.34,3.34,2.91a1.86,1.86,0,0,0,1.09,2.49c4.06,1,8.23,1.31,12.17-.29,3.31-1.35,3.61-4.53,3.38-7.61-.3-4,.37-6.93,5.42-6.6,1.79.12,2.76-1.67,4-2.71.8-.67,1.7-1.29,2.68-.67s.78,1.79.27,2.66c-2,3.47-1.2,6.95-.56,10.6.53,3,1.53,4.94,4.75,5.36a4.12,4.12,0,0,1,3.6,3c1.47,4.23,4.3,5.59,8.56,3.83,1.3-.54,3.19-1.75,4-.1.75,1.49-1,2.16-2.41,2.87-3.25,1.63,1.29,2.52.57,4-7.87.08-15.75.13-23.62.26C338.48,394.79,336.58,394.22,335.07,395.68Z"/><path class="cls-11" d="M131.59,403.53c0-1.16,0-2.31,0-3.47,0-1.63.51-3,2.39-3.21s3.2,0,3.67,2.25c.24,1.18,1.22,2.2,1.87,3.29,7.25,18.18,20.36,30.46,38.09,38.24a46.94,46.94,0,0,0,18.51,4.16,2.87,2.87,0,0,1,1,.59,77.41,77.41,0,0,0,13.36,0l1.24-.64,5.93-.12c2.37,1.84,4.11,3.72.5,6-3,.4-6.32-.26-9,1.94-2,0-4,0-6,0-23.62.39-42.32-9.76-57.81-26.89C139.41,419.13,135.58,411.3,131.59,403.53Z"/><path class="cls-12" d="M253.29,384.43c3.36,3.75,5.48,8.34,8.53,12.36,10,13.12,23.86,19.88,38.61,25.48,1.32.5,2.93.23,4.4.32l.31,0a3.82,3.82,0,0,0,1.18.85c2.85.72,5.95-.7,8.67,1l4.31.34a3,3,0,0,1,.73,2.07c-1.21,4.14-3.79,1.55-5.92,1.22C311,426.9,309.8,431,307,430.64c-4.14.33-7.65-2.76-11.84-2.16-10.56-1.74-19.21-7.24-27.41-13.76-7.79-6.19-13.54-14.12-19.29-22.05-1.53-2.1-3.6-4.63-1.26-7.61C249.23,384.63,250.87,380.79,253.29,384.43Z"/><path class="cls-13" d="M247.23,385.06c.24,4.51,2.87,8,5.36,11.35,10.58,14.22,23.65,25.23,41,30.39a2.2,2.2,0,0,1,1.61,1.68c-7.7,2.37-14-1-20.06-5-9.74-6.4-16.34-15.88-23.76-24.54-3.49-4.08-6.71-8.39-10.05-12.6Z"/><path class="cls-14" d="M319.25,426.45c0-.53,0-1.05.05-1.58l1.72-.05c6.74,6.45,8.55,20.59,3.64,28.35a5.55,5.55,0,0,1-2.59,2.2c-3.71-.84-7.17-2.07-8.92-5.88,2.8-4.45.5-9.71,2.28-14.32,1.49-1.26-.16-3.17.89-4.53C317,429,320.52,429.42,319.25,426.45Z"/><path class="cls-15" d="M217.37,450.09c4.38-1.63-.45-3.68.26-5.48a1.4,1.4,0,0,1,.89-.22c7.85,1.81,11.06,8,13.14,14.74,1.31,4.25,3.35,8.89-.3,13.19-3.5,0-7.31,1.55-10.15-1.95-.69-6.51-3.26-12.59-4.33-19A2.08,2.08,0,0,1,217.37,450.09Z"/><path class="cls-16" d="M217.39,450.53c2.21-.43-.84,4.91,3,2.77.58-.32.62.65.41.86-3.32,3.25-.62,6.46.83,8.82,1.84,3,1.13,5-.46,7.39-2.62-.94-3.28-3.46-4.31-5.58-.81-1.67-.19-3.76-3.76-2.55-2.85,1-1.54-2.06-1.09-3.61C212.89,455.31,215.54,453.18,217.39,450.53Z"/><path class="cls-17" d="M322.07,455.37c4.38-7.1,4.61-14.75,2.9-22.61-.64-3-4.31-4.45-4-7.94,3.57-.19,5.33,1.56,6.12,5,1.77,7.86,2.2,15.55-1,23.21C325.28,455.17,324.22,456,322.07,455.37Z"/><path class="cls-18" d="M231.36,472.32c2.07-9-2-19.46-9.32-24.59a30.76,30.76,0,0,1-3.52-3.34c3.61-1.85,6.06-.61,8.27,2.6,4.36,6.34,7.9,12.85,7.54,20.91C234.23,470.21,233.58,471.66,231.36,472.32Z"/><path class="cls-19" d="M315.94,435.52c.4,3.7-.33,7.42.55,11.16.41,1.77-2.48,1.5-3.34,2.81-1.55-1-1.45-2.42-1.73-4.05-.39-2.3,1.23-6.3-3.75-6.23-.81,0-1-1.83.41-2.52.93.16,2,.53,1.8-1.12a4,4,0,0,1-.18-.68c.91-1.55,2.36-1.7,3.94-1.56C314.81,433.64,316.07,433.84,315.94,435.52Z"/><path class="cls-20" d="M217.39,450.53c1.07,4.58-3.32,5.56-5.34,8.1-1.9-1.57-3.17-3.44-2.91-6.05,1.09-6.31,5.1-3,8.23-2.49Z"/><path class="cls-21" d="M313.85,434.47l-4.15.42a7.08,7.08,0,0,1-2.67-4.25c2-2,3-5.82,7.11-3.9a3.59,3.59,0,0,1,.94,2.61C314.42,431,315.67,433.1,313.85,434.47Z"/><path class="cls-22" d="M196.58,445.6a5.5,5.5,0,0,1-.47-.81l15.59-.06c-.11.28-.23.56-.36.83A43,43,0,0,1,196.58,445.6Z"/><path class="cls-23" d="M309.88,435.57c.9.4,2.44-.63,2.75.83.17.84-.76,1.79-1.73,2-1.42.35-3,.63-2.82-1.74Z"/><path class="cls-24" d="M315,424.53c-3.27,0-6.65,1.08-9.73-.91,3.18-.63,6.36-.94,9.51.21C314.85,424.06,314.92,424.3,315,424.53Z"/><path class="cls-25" d="M314.77,423.83l-9.52-.21c0-.33-.07-.66-.11-1C308.34,423.1,311.8,421.53,314.77,423.83Z"/><path class="cls-26" d="M290.05,212.31l20.89-11c2.1,1.29,2.41,3.51,2.75,5.61,7.35,44.5,14.66,89,21.58,133.59,1,6.1-.16,7.73-5.92,10.28a28.05,28.05,0,0,0-6.3,6.1,2.08,2.08,0,0,1-2.06,2l-6,5c-1.5-.84-1.71-2.25-1.9-3.8-2-16.56-4.91-33-7.62-49.43-3-18.08-5.58-36.22-8.44-54.32-2.06-13-4.3-26.05-6.42-39.08C290.32,215.6,290.22,214,290.05,212.31Z"/><path class="cls-27" d="M56.89,258.16a1.73,1.73,0,0,1,2.78-.1c2.26,2.51,2.42,5.76,3,8.83,6.36,32.25,12.47,64.55,18.53,96.86,1.08,5.75,3.06,9.56,9.31,11.09,6.67,1.64,11.69,6.26,15.23,12.12,1.75,2.89,3.73,3.59,7,3.16,25-3.31,50-6.24,74.9-10.59,23.21-4.06,46.47-7.83,69.6-12.41,1.62-.33,3.23-.8,4.86-1,6.87-.88,11.61-3.48,14-10.95,2.33-7.27,8.92-11,16.51-11.88,3.86-.45,4.59-2,3.88-5.57-5.9-29.47-10.76-59.14-15.94-88.74-1.8-10.29-3.92-20.53-5-30.94,1.09-.83,2.36-.69,3.61-.68Q290,277.91,300.9,338.48c1.42,8,1.36,8-6.74,8.42-9,.5-17.1,8.59-16.78,17.5.13,3.48-2.26,2.88-3.75,3.19-13.59,2.86-27.22,5.49-40.84,8.24-25.13,5.08-50.5,8.72-75.82,12.69-16,2.5-32.16,4.09-48.25,6.1-2.54.31-4.08-.1-5.2-3.07-2.89-7.71-9.1-12.08-17-13.64-4.41-.88-7.06-1.87-8-7.19C72,335.26,65,299.89,58.09,264.49,57.68,262.38,57.29,260.27,56.89,258.16Z"/><path class="cls-28" d="M248.18,28.74c.38-3.14-1.62-3.15-3.79-2.85q-34,4.66-67.95,9.33-38.91,5.3-77.82,10.51-30.79,4.17-61.56,8.4a22.8,22.8,0,0,1-6.68.12C36.64,49.58,40.9,42.6,49.92,41.51c22.37-2.68,44.66-6,67-9.15q41.36-5.77,82.7-11.58c25.1-3.51,50.22-6.9,75.31-10.56,3.69-.53,5.44,0,6.05,4C284,34,287.26,53.81,290.44,73.6a6,6,0,0,1,1,2,16.64,16.64,0,0,1-.68,6.83c-.31,1.24-.54,2.84-2.08,3S286.6,84.17,286,83a15.52,15.52,0,0,0-1-2.76c1,7.57,4.17,14.35,3.21,21.75-1.77,6.2-2,12.7-3.75,18.87s-1.77,13-5.68,18.57c-1.14-.31-1.47-1.15-1.59-2.22-1.92-16-5.29-31.82-7.57-47.76-2.08-14.51-5.18-28.87-6.55-43.49a57.94,57.94,0,0,0-2.28-11.11c-1.07-3.57-3-8-8.67-6.15C250.93,29.09,249.5,28.75,248.18,28.74Z"/><path class="cls-4" d="M41.49,208.75l5.78.64c1.51-.36,2.94.55,4.45.29,12.09,2.76,24.06,6,36.23,8.37,15.89,3.13,31.82,6,48.08,6.28,2.3,0,4.65-.18,6.8,1,2.41,3.85-1.5,4-3.21,4.88-6.73,3.33-12.1,7.93-15.3,14.84-1,2.07-1.56,4.41-4,5.41-14.21,5.42-29.06,7.82-44.11,9.17a11.26,11.26,0,0,1-4-.35c-5.14-4.75-8.88-10.61-12.68-16.41a2.24,2.24,0,0,1,.33-3.1c5.93-1.09,11.35,1.6,17,2.54,11.51,1.92,22.58-.41,33.79-1.91-15.86,3-31.62,3.07-47.28-1.3-1.43-.4-2.9-.91-4.25.26-1.42.46-2.07-.5-2.72-1.48C53.21,233,50.28,228,47.1,223.11c-.74-1.14-1.65-2.61-.13-4,4.68-1,8.21,2.09,12.1,3.61,17.29,6.75,35.07,10.74,53.7,10.55-18.11-.08-35.37-4.38-52.25-10.58-2.81-1-5.52-2.27-8.25-3.48-1.81-.81-3.73-1.6-5.58,0C42.39,216.91,40.55,213.18,41.49,208.75Z"/><path class="cls-27" d="M49.88,210.87c-1.34.33-1.9-.71-2.61-1.48C43.69,190.2,40.15,171,36.5,151.82,33.09,134,29.55,116.1,26.09,98.24c-.39-2-.21-3.35,2.48-3.75,11.25-1.68,16.58-10.13,17-20.58.23-5,2.09-6.71,6.51-7.26,23.8-2.91,47.56-6.06,71.37-8.83,22.36-2.6,44.78-4.63,67.12-7.29,11.82-1.41,23.78-1.73,35.45-4.31,2.11-.47,2.6.62,3.39,1.89,5.16,8.28,12.42,12.49,22.35,11.61,1.68-.14,2.53.32,2.82,2.42q4.17,29.46,8.7,58.89c2,12.75,4.22,25.45,6.29,38.18.43,2.61.63,5.26.93,7.89-.2.21-.41.41-.61.61a2.4,2.4,0,0,1-1.67-.12c-2.6-2.37-2.41-5.73-2.89-8.77-4.4-27.88-8.95-55.74-13-83.67-.26-1.81-.72-3.59-.9-5.41-.31-3.22-1.78-5-5.17-5.61a29.73,29.73,0,0,1-17.47-9.83c-2.41-2.7-5.05-3.56-8.78-3.15-32.66,3.57-65.32,7.15-97.94,11.06-21.58,2.58-43.26,4.36-64.68,8.21-6.82,1.22-6.67,1.24-8.33,8.16-2,8.29-6,15.19-14.47,18.34-3.69,1.38-4,3.69-3.33,7,5.6,29.19,11.1,58.4,16.78,87.57.89,4.56,1.62,9.16,2.58,13.71C51.09,207.17,51.6,209.21,49.88,210.87Z"/><path class="cls-29" d="M46.84,219.17c3.3,7,7.79,13.33,12,19.8.86,0,1.38.36,1.06,1.34,3,6.67,8.36,11.71,12.1,17.86,2.44,1,5.12,1.84,4.65,5.35-.17,1.28-1,2.29-2.3,2-2.81-.59-4.43-2.63-5.5-5.16-.4-.95,0-2-.16-2.92-12-14.7-21.28-31.19-30.62-47.61a7.3,7.3,0,0,1-.39-2.44l2-.14c.31.87.8,1.52,1.83,1.5.63,4.08,2.81,7.36,5.38,10.45Z"/><path class="cls-30" d="M278.79,139.43q4.13-19,8.26-37.91a1.84,1.84,0,0,1,2.34-.08c2.53,4.45.08,8.83-.73,13-2.25,11.64-4.77,23.26-8.66,34.51a2,2,0,0,1-2.2.9l-.7-.46A17.16,17.16,0,0,1,278.79,139.43Z"/><path class="cls-31" d="M273.29,167.46l-.33,1c-.5.93-1.19,1.63-2.3,1.14-.89-.39-1-1.13-.4-1.93a.73.73,0,0,1,.29-.62c1.08-5.81,4.11-11.07,4.95-17,.05-.33,1-.51,1.6-.76l.07,0c3.49,5.2.27,9.75-1.62,14.3A22.3,22.3,0,0,1,273.29,167.46Z"/><path class="cls-32" d="M352.9,207.25c0,1.46,1.32,2,2,3,1.45,3.6,3.45,6.47,7.37,8.06,3,1.21,3.85,4.7,5.48,7.29.62,1,1,2.06,2.1,2.59.91-.23,1.24.1,1,1,0,3.29.06,6.53-1,9.77-3.28,9.69-9.69,13.94-19.64,11.92a94,94,0,0,0-21.08-1.75,4,4,0,0,1-2-2.74c-2.8-12-5.3-24-5.81-36.39a8.89,8.89,0,0,0-1.39-7,7.59,7.59,0,0,1,.87-7.35c2.9-4.54,8.32-5.57,12.23-8.74,1.48-1.19,2.78.56,3.65,1.66,4.85,6.11,10.58,11.5,14.89,18.07C351.81,207,352.46,207.06,352.9,207.25Z"/><path class="cls-3" d="M320.82,195.68c.1,2.51.19,5,.28,7.52,1.65,1.75.17,4.4,1.78,6.16.26,8,2.44,15.63,3.58,23.44.81,5.46,1.9,10.87,2.65,16.33.44,2.75-1.46,6,1.76,8.14.31.16.42.34.34.54s-.17.3-.27.3l.14,8.89c1.32,1.89.53,4.69,2.69,6.22a3.72,3.72,0,0,1-.58,3.84c0,4.06,2.36,14.67,3.61,16.28.39.14.53.3.41.46a.5.5,0,0,1-.38.25c-1.11,7.15,2.29,13.82,2.18,20.86,1.26,1.79,1.35,4.07,2.54,5.89a3.19,3.19,0,0,1-.48,2.11c-.84,6.14,2.91,11.77,2,17.93a5.75,5.75,0,0,1,0,6.13c-3.89,3.73-8.71,4.1-13.72,3.79,6.55-4.21,4.23-10.32,3.31-16Q321.85,268,310.94,201.28C313.45,198,317.45,197.41,320.82,195.68Z"/><path class="cls-2" d="M373.48,255.27c3.75-.34,6.5-4.05,10.32-2,1.56.84,1.93-1.23,1.92-2.59s-1.68-3.86.95-4c2.8-.11,1.75,2.4,1.56,4.14a2.13,2.13,0,0,0,.71,1.73c3.64,2.13,2.75,5.63,2.87,8.86.08,2.11-.32,4.63,3.25,4.12,2.8-.41.78,4.16,3.54,3.67,2.26-.39,1.73-3.51,3.72-4.35.8-.34,2.22-.41,2,.32-1,3.68,3.42,4.46,3.71,7.33.09.89.24,1.71,1.2,1.91,1.14.25,1.31-.71,1.52-1.5.42-1.69,1.57-2.16,3-1.49a3.87,3.87,0,0,1,2,3.26c.14,1.93-1.58,1.28-2.55,1.32-2.6.1-3.34,2.06-3.78,4-.48,2.1.94,2.93,2.9,3.07,1,.08,2.46.56,1.35,1.66-1.3,1.29.05,3.85-2,4.2s-4.4.47-6-1.48c-5.9-7.17-13.36-12.79-19.37-19.89C382.53,263.06,377.8,259.34,373.48,255.27Z"/><path class="cls-2" d="M330.94,258.11a1.28,1.28,0,0,1-.07-.84c3.4-2.6,7.61-1.73,11.41-2.64a1.12,1.12,0,0,1,1.37,1.5c-1.51,4.89-1,9.94-1.21,15.13C340.41,265.07,338.16,259.41,330.94,258.11Z"/><path class="cls-2" d="M336.83,294.05a.88.88,0,0,1,0-.71c.06-2.65.1-5.31.17-8a5.61,5.61,0,0,1,4.19-6.51c.7-.37,1.23.29,1.47.94.82,2.13-.62,2.76-2.16,3.7-1.91,1.16-.56,2.72.36,3.75,2.76,3.1,3.49,5.25-1.91,5.51C338.21,292.81,337.53,293.61,336.83,294.05Z"/><path class="cls-2" d="M385.78,384.86c-1.75-.53-4.7.95-4.62-2.22.06-2.68,2.71-1.76,4.34-1.8,1.86,0,4.72-.64,4.8,2C390.4,386,387.32,384.2,385.78,384.86Z"/><path class="cls-2" d="M404.49,331.73c.17,1.36.18,2.12-.59,2.26a2.15,2.15,0,0,1-2.43-1.27c-1-2.89-1-6.08-2.43-8.88a1,1,0,0,1,.93-1.36c1.12,0,1.73.86,2.22,1.7C403.67,326.72,401.26,330.4,404.49,331.73Z"/><path class="cls-2" d="M364,381.29c3.39-.65,6-.91,8.57.06a2.28,2.28,0,0,1,1.7,2.21c-.15,1.34-1.41,1.15-2.36,1.19A8.8,8.8,0,0,1,364,381.29Z"/><path class="cls-2" d="M321,358.82a2.92,2.92,0,0,1,2.06-2c2.88-.2,5.57.08,7.69,3.52C327.1,360.33,323.73,362.72,321,358.82Z"/><path class="cls-2" d="M337.81,354.87c.83,0,1.66-.05,2.49,0s2.27,0,2,1.44c-.19,1.18-1.08,2.23-2.48,1.67-1.09-.44-2-1-3.25-.5-1.13.45-2.93,2.21-3.38-.48-.36-2.12,1.59-2.09,3.1-2.15C336.82,354.85,337.31,354.86,337.81,354.87Z"/><path class="cls-2" d="M380.63,234.75a2.52,2.52,0,0,1-2.9,2.29c-1.63-.14-3.48-.46-3.58-2.51-.08-1.6,1.14-2.36,2.67-1.78C378.17,233.26,380.24,232.7,380.63,234.75Z"/><path class="cls-2" d="M333.19,277.06l-.32-3.93a1.42,1.42,0,0,1,.26-2.05c1.35-.09,3.15-1.2,3.61,1.06C337.3,274.89,335.78,276.44,333.19,277.06Z"/><path class="cls-2" d="M370.87,229.19c-.34-.33-.67-.67-1-1a3.64,3.64,0,0,1,.19-1c.78-1.65,1.75-3.19,3.72-3.46.81-.11,1,.81,1,1.43C374.57,227.59,373.65,229.31,370.87,229.19Z"/><path class="cls-2" d="M343.87,300.74c-1.23-2-1.28-3.46.09-4.78a1.3,1.3,0,0,1,1.24.22C346.45,297.93,345.48,299.2,343.87,300.74Z"/><path class="cls-2" d="M396.39,256.52c2.24-.3,3.6.23,4.09,2.12a1.35,1.35,0,0,1-.76,1.08C397.53,260.17,397,258.64,396.39,256.52Z"/><path class="cls-33" d="M340.76,321.07c-3.07-1.34-1.48-4-1.75-6.16a2.18,2.18,0,0,1,1.92,2C341.94,318.37,342.26,319.76,340.76,321.07Z"/><path class="cls-34" d="M333.13,271.08c-.09.68-.17,1.37-.26,2.05-3.05-1.33-1.59-4-1.79-6.13C333.43,267.52,332.76,269.56,333.13,271.08Z"/><path class="cls-35" d="M343.06,347v-6.13C345.66,342.88,346.13,344.92,343.06,347Z"/><path class="cls-2" d="M340.76,321.07c.06-1.37.11-2.74.17-4.12,3.62,1.9,2.25,3.92.14,6C341,322.29,340.87,321.68,340.76,321.07Z"/><path class="cls-36" d="M279.13,149.43c0-7.65,3.37-14.56,4.87-21.9,1.77-8.65,3.72-17.26,5.11-26,.54-2.82,0-6.51,4.84-5.72l6.6,41.56a122.52,122.52,0,0,1-19.29,22.25C278.22,156.72,278,153.22,279.13,149.43Z"/><path class="cls-37" d="M294,95.82c-3.9,0-1.74,5.07-4.84,5.72l-2.06,0c.12-5.83-2.18-11.26-2.83-17-.12-1-.77-1.88-.82-2.84-.11-2-1.43-5.2.87-5.67,3.5-.71,2.52,2.87,2.92,5,.25,1.25.11,2.69,1.46,3.53.64-2.93,1.29-5.82,1.93-8.72,3.29-1.77,3.39.59,3.52,2.77.17,2.9,1.5,2.33,3.1,1.12,4.33,1,2,4.06,1.2,5.72-1,2-1.18,2.92-.09,5.13C300.06,94.11,296.81,95.16,294,95.82Z"/><path class="cls-38" d="M297.2,79.7c-.47,2-2.53,3.24-2.53,6.19-2.45-2.53-1.37-4.83-1.51-6.89-.12-1.71.55-4-2.59-3.19,0-.74-.09-1.47-.13-2.21,2.89-.39,5,.22,4.75,3.77A2,2,0,0,0,297.2,79.7Z"/><path class="cls-39" d="M68.7,257.45c1.76,2.74,3.42,5.58,6.49,7.62,1.47-3.76-2-4.81-3.19-6.9,15.7-1.34,31.25-3.4,46.13-8.92a9.81,9.81,0,0,1,2.45-.22c1.35,1.3,1.26,2.94,1,4.59-.93,7,.69,13.66,3.07,20.17,1.46,5,2.77,5.5,6.49,2.09,5.12-4.7,9.15-10.4,13.87-15.47,5-4,9.35-8.34,9.53-15.32.87-1.44,1.45-3.07,2.69-4.28a3,3,0,0,1,2.09-.33,5.18,5.18,0,0,0,6.27-.13,3.92,3.92,0,0,1,2.8.19c2.59,2.12,3.89,5.27,6.11,7.7,3.91,4.31,8,8.31,14,9.5,5.09,1.41,8.1,6,12.71,8.25,5.21,2.55,5.1,2.78,7.53-2.41,3.34-4.8,1-9.61-.41-14.13a32.86,32.86,0,0,0-8-13.53c-1.41-1.42-3.95-3.17-1.22-5.73a8.13,8.13,0,0,1,4.33-.88c13.59.86,26.93-1.81,40.37-2.8,4.7,1.73-.54,4,.4,5.66-.37.86.64.51,0,.42-.15,0-.21-.25,0-.47,1.83-1.71,1-5.82,5-5.56,8.89-2.32,17.81-4.59,26.18-8.53,3.69,2.81,2.75,7.25,3.41,10.91,4.72,25.89,9,51.86,13.58,77.78,2,11.09,4.25,22.12,6.41,33.17.68,3.45-.1,5.06-4.2,5.07-9.84,0-17.61,6.65-19.42,16.57-.53,2.89-1.67,3.79-4.28,4.37-26.81,6-53.92,10.38-81,15.09-20.89,3.64-41.92,6.14-62.87,9.33-6.05.92-12.15,1.54-18.23,2.24-1.27.14-2.53.36-3.23-1.43C102.05,381.76,94.55,377,85.17,375c-2.91-.6-3.87-1.9-4.34-4.36q-6.49-33.9-13-67.79-4.17-21.69-8.3-43.4a4.63,4.63,0,0,1,.16-1.41C62.66,257.67,65.74,258.43,68.7,257.45Z"/><path class="cls-40" d="M255.3,213.9c14.32-3.51,26.75-10.63,38.17-19.78,1.66-1.33,3.73-5,6-2.06,1.68,2.16-1.78,3.82-3.41,5.15a107.36,107.36,0,0,1-43.66,21.92C251.3,216.24,251.92,214.31,255.3,213.9Z"/><path class="cls-41" d="M263.38,194.26c11.27-6.44,20.1-15.76,29.17-24.79.57-.57.93-1.42,1.58-1.84,1.1-.7,2-2.58,3.74-.94s.09,2.7-.76,3.68a176.09,176.09,0,0,1-17.18,16.83,114.78,114.78,0,0,1-19.53,14.08C258.53,197.72,260.17,195.66,263.38,194.26Z"/><path class="cls-42" d="M263.38,194.26a17.66,17.66,0,0,0-3,7,67.36,67.36,0,0,0-5.1,12.62,8.6,8.6,0,0,0-2.91,5.23c-1.21,2.4-3.08,4.52-3,7.43-2.56,1.3-2.89,4.09-4,6.29a17.09,17.09,0,0,1-3.85,4.93c-.22-4.63,3-7.06,3.48-10.3-1.4-2.39.63-4.13,1.17-6.16,1.27-2.21,3-4.19,3.57-6.77,1-3.38,3.53-6.06,4.26-9.55.73-2.28,2.49-4.06,3.05-6.42,1.37-7.19,5.4-13.37,7.71-20.2a13.52,13.52,0,0,0,1-3.23c.9-2.53,1.35-5.27,3.28-7.35l1.2-.08c.31,2.31,1.64,1.09,2.71.79Q268.17,181.38,263.38,194.26Z"/><path class="cls-43" d="M279.13,149.43l2.13,10.2a23.06,23.06,0,0,1-8,7.83c-.74-3.43,1.58-6.22,2.53-9.12a27.62,27.62,0,0,0,1.35-8.92Z"/><path class="cls-44" d="M196.58,445.6l14.76,0c-4.77,2.13-9.74.73-14.63.81-.09,0-.26-.2-.27-.32A1,1,0,0,1,196.58,445.6Z"/><path class="cls-45" d="M314,429.39c.05-.89.09-1.77.14-2.65,1.6-2,3.65,4.17,5.11-.29,1.73,2.48-.42,3.24-1.9,4.31C315.88,431.16,314.06,432.44,314,429.39Z"/><path class="cls-46" d="M314,429.39c.78,1.28,2.13,1.18,3.35,1.37,0,.95-.51,2.24-.06,2.81,1.95,2.49.58,2.33-1.35,1.95l-2.09-1C314.39,432.79,311.72,431,314,429.39Z"/><path class="cls-39" d="M269.06,167.8a7.59,7.59,0,0,1-1.91,7c-2.43,4.58-6.9,7.13-10.76,10.1A229.43,229.43,0,0,1,187,221.76c-2.36.78-4.79,1.27-7.19,1.88s-4.83,0-6.83,1.69a8.34,8.34,0,0,1-7.19.87c-2.62-1.63-5.25-2.53-7.88,0a6.72,6.72,0,0,1-4.12,1.74c-3.5-.21-7.19,1-10.39-1.39-17.64.27-35-2.49-52.19-5.77-13.9-2.66-27.55-6.58-41.32-9.93q-5.73-29.72-11.45-59.43c-3.22-16.89-6.31-33.81-9.64-50.69-.55-2.8-.19-3.9,2.77-4.77,9.79-2.87,15.9-10.93,16.22-21.29.1-3,1.07-4.44,4-5.09C65.43,66.66,79.25,65.25,93,63.66q23.17-2.69,46.34-5.39,20.22-2.33,40.44-4.59c14-1.56,28-3,41.92-4.7,3.11-.38,5.16.07,7.22,2.68,5.15,6.51,11.88,10.59,20.36,10.93,3.13.13,3.43,2.24,3.74,4.29,2.75,17.82,5.32,35.67,8.13,53.48C263.68,136.2,266.43,152,269.06,167.8Z"/><path class="cls-47" d="M46.88,219.21c0-2.66.53-4.18,3.82-2.6a159.93,159.93,0,0,0,49.71,14.17c4.41.55,8.93.25,13.39.43,1.55.06,3.74-.43,3.57,2.18-.15,2.14-2.09,1.71-3.5,1.78-15.24.78-29.8-2.88-44.32-6.83-7.95-2.16-15.28-5.77-22.71-9.17Z"/><path class="cls-48" d="M143.39,226.57c3.88-.11,7.81-1.26,11.59.61a3.52,3.52,0,0,1-1.37,3.62c-3.94,1.7-8.32,1.67-12.33,3.48-12.05,5.43-18.25,17.64-15.06,30.61.55,2.25,1.37,4.48,1.26,6.82s-.57,4.47-3.8,3.49c-4.32-8.33-5-17.09-3.1-26.16C124.28,237.59,132.67,230.89,143.39,226.57Z"/><path class="cls-49" d="M59.91,240.31,58.85,239c.37-2.38,1.59-3,3.86-2.13,6.71,2.55,13.9,2.66,20.87,3.9,5.79,1,11.54-.52,17.26-1,3.85-.36,8-.09,11.68-2a1.91,1.91,0,0,1,3,1.47c.28,1.58-.86,1.83-2,2.27-5,2-10.36,1.89-15.56,2.67C85,246.11,72.38,243.79,59.91,240.31Z"/><path class="cls-50" d="M322.88,209.36c-3-1.35-1.58-4-1.78-6.16C324.27,204.51,322.63,207.21,322.88,209.36Z"/><path class="cls-51" d="M179.44,222.32a229.75,229.75,0,0,0,74.28-37.42c4.47-3.38,8.46-7.38,13.43-10.09-.84,5.07-3,9.71-4.95,14.37-1.39,3.31-3,6.48-3.69,10-5.89,4.68-12.6,7.91-19.37,11-6.59,3-13.57,5.11-20.16,8.14a179.69,179.69,0,0,0,29.69-12c2-1,3.88-2.86,6.38-1.15,0,3.92-3,6.64-4.1,10.13-1,2.16-5.76,2-3.63,6,.6,2.55-1.77,4-2.33,6.09-15.32,3.5-30.87,4.15-46.51,3.7a2.76,2.76,0,0,1-3.2-.28,61.78,61.78,0,0,0-13.77-6.27C180.46,224.29,179.28,223.84,179.44,222.32Z"/><path class="cls-51" d="M123.68,275.2c3-.28,2.62-2.08,2.12-4.28-1.34-5.94-3.08-11.78-1.78-18.07,2.71-13.21,14.72-23.67,29.32-22.6,1.6,1.08,1.55,2.6,1.14,4.21-2.51,3.39-7.11,4.72-8.85,9.11,2-.89,3-3.54,5.64-2.91a2.63,2.63,0,0,1,1.08.93c2,6,.46,11-4,15.33-1.26,1.21-3,2.18-2.6,4.43-4.48,6.24-9.3,12.24-15.21,17.15C126.25,282,124.37,281,123.68,275.2Z"/><path class="cls-51" d="M169,225.2l3.28-1.06c21.57,1.19,35.92,15,37.8,36.31a6.47,6.47,0,0,1-.55,3.88c-.16,5.78-2,6.76-7.17,4.19s-9-6.93-14-9.69c-4.64-3.89-10.13-6.76-13.78-11.81-2-2.79-4.34-5.39-4.82-9a3.59,3.59,0,0,1,2.4-3.44c6.62,1,10.26,6.21,15.28,11.36-3.78-7.65-10.59-10.06-16-14.07C170,229.86,168.27,228,169,225.2Z"/><path class="cls-52" d="M169,225.2l3.66,6.11c.72,1.3,1.06,2.58-.19,3.78l-1.72,3c.05,1.87-.7,3-2.72,3l-2.42.18a5.92,5.92,0,0,1-6.13,0l-1.72-.1a6.33,6.33,0,0,1-4.34-2.64,3,3,0,0,1,.09-3.58l-.12-4.73a4.08,4.08,0,0,1,1.64-3.07c.47-1.13,1.08-2.07,2.5-2a9.09,9.09,0,0,1,8.1-.16Z"/><path class="cls-53" d="M209.48,264.33c-2.63-4.74-1.5-10.27-3.47-15.28-5.39-13.66-15.79-20.37-29.62-22.76-1.71-.3-3.24-.51-4.16-2.15,1.8-3,4.7-1.62,7.21-1.82a54.64,54.64,0,0,1,19,8.86,49.25,49.25,0,0,1,11.87,18c1.4,3.79,1.23,7.76,1.89,11.63C212.56,262.77,211.39,264,209.48,264.33Z"/><path class="cls-54" d="M168,241.13c.9-1,1.81-2,2.72-3,3.52,6.59,7.89,12.42,14.5,16.26,1.73,1,3.44,2,3.15,4.49-2.13,1-3.72-.18-5.42-1.23A40.72,40.72,0,0,1,168,241.13Z"/><path class="cls-55" d="M145.72,261.35c-2.28-.74-3.32-2.62-1.11-3.8,7-3.7,7.39-9.77,6.89-16.41,4.5-1.24,4.93-.83,4.25,4.07C156.22,253,152,257.79,145.72,261.35Z"/><path class="cls-56" d="M155.75,245.21c.07-2.91-1.16-4.46-4.25-4.07l0,0c-.31-2.2.55-3.17,2.82-2.65,1.29.68,3,.82,3.36,2.67C157.45,242.74,157.28,244.3,155.75,245.21Z"/><path class="cls-57" d="M159.43,241.3h6.13C163.51,244.12,161.47,244.07,159.43,241.3Z"/><path class="cls-58" d="M255.05,205.24c-9.72,4.32-19,9.55-29.21,12.87-2.19.72-4.33,1.55-6.51,2.32-1.51.53-3.3,1.66-4.07-.78-.63-2,1.12-2.36,2.54-2.87a283,283,0,0,0,28.25-11.6c4.14-2,7.46-5.75,12.46-6A18.7,18.7,0,0,1,255.05,205.24Z"/><path class="cls-59" d="M247.32,221.39c-1.45-.41-3.65.44-4-2-.33-2.59,2-2,3.41-2.58s2.78-1,4.18-1.47C250.05,217.56,249.72,220.1,247.32,221.39Z"/><path class="cls-60" d="M95.85,111.29c19.71,1.85,35.8,9.25,45,27.79,1.69,3.39,2.84,7.51,8.05,4.48a.59.59,0,0,1,.48-.05c7.41,3.86,6.82-2,8-6.32,2.88-10.28,9.23-18.21,17.91-24.16a52,52,0,0,1,30-9.52c17.53.07,31.18,11.08,35.62,28.18,4.74,18.25-6,43.92-24.46,52.21-22.24,10-47.26,2.56-58.17-20.33-1.4-2.93-.49-6.22-1.92-9.16-1.58-3.27-3.09-6.7-7.47-5.8-4.09.85-4.37,4.29-4.38,7.84-.05,19.71-11.31,33-30.29,38.32C92.79,200.84,71,188.33,63,168.7c-5.09-12.44-6-24.74,0-37.21C69.77,117.66,81.44,112.33,95.85,111.29Z"/><path class="cls-61" d="M147.28,195.31c6.67.95,13.95-1.39,20.84-4.62,3.34-1.56,4-.32,4.77,2.29,2.54,8.14-2.86,20-10.92,23.22-12.71,5.09-24.38-.84-27.1-13.59-1.32-6.18-.45-7.39,5.76-7.31C142.45,195.33,144.28,195.31,147.28,195.31Z"/><path class="cls-62" d="M215.31,93.24c6.56-4,19.14,2.58,20.81,11.18C229.61,99.42,223.62,94.31,215.31,93.24Z"/><path class="cls-63" d="M75.31,105c-7.64,3.37-12.73,8.76-16.93,15.63C57.72,111.54,65.88,103.92,75.31,105Z"/><path class="cls-64" d="M165.58,225l-8.1.16C160.12,222.17,162.82,222.22,165.58,225Z"/><path class="cls-65" d="M154.34,238.53c-1.14.67-2.66.95-2.82,2.65-2.67.38-3.29,3-4.89,4.53-1,.93-1.84,2.14-3.3,1-1.21-.92-.65-2.21,0-3.11,2.67-3.68,5-7.76,10.12-8.65C153.75,236.16,154,237.34,154.34,238.53Z"/><path class="cls-66" d="M172.42,235.09c.06-1.26.13-2.52.19-3.78,6.33,2.67,11.73,6.5,15.66,12.26,1.09,1.6,2.2,3.61.39,4.77s-2.69-1.08-3.59-2.42C181.86,241.13,177,238.28,172.42,235.09Z"/><path class="cls-39" d="M204.36,107.53c23,0,38.57,20.91,32.32,43.23-2.08,7.44-5,14.31-10,20.28-7.8,9.33-18.31,12.88-29.82,13.06-12.21.19-22.28-5-30-14.68-8.91-11.1-9.22-31.46,1-43.71C177.4,114.32,190,108.09,204.36,107.53Z"/><path class="cls-39" d="M140.52,155.72c0,18.23-10.81,30.53-27.2,34.82s-29.47-.48-39.95-12.82c-8.24-9.69-11-21.09-9.87-34.08,1.46-16.89,19.06-29.3,32.94-28.08,19.06,1.66,34.16,9.68,42.11,28C140.39,147.83,140.36,152.62,140.52,155.72Z"/><path class="cls-67" d="M204.3,145.91c0,6.37-4.9,11.53-10.9,11.45-5.6-.07-10.88-5.48-10.93-11.21-.05-6.15,5-11.58,10.93-11.65C199.54,134.43,204.29,139.41,204.3,145.91Z"/><path class="cls-68" d="M90.79,155.9c0-6,5.46-11.53,11.34-11.43s11.15,5.74,11,11.66-5.34,11.11-11,11.21C96.23,167.44,90.79,161.94,90.79,155.9Z"/></g></g></svg>