<svg xmlns="http://www.w3.org/2000/svg" viewBox="0 0 511.31 511.8"><defs><style>.cls-1{fill:#1d425c;}.cls-2{fill:#97db4f;}.cls-3{fill:#a32b4a;}.cls-4{fill:#b9314f;}.cls-5{fill:#173649;}.cls-6{fill:#e7e5f8;}.cls-7{fill:#d3c6fa;}.cls-8{fill:#dad4f4;}.cls-9{fill:#8dc64a;}.cls-10{fill:#fff;}.cls-11{fill:#d3d3d3;}.cls-12{fill:#e9e7fa;}</style></defs><g id="Calque_2" data-name="Calque 2"><g id="Calque_1-2" data-name="Calque 1"><g id="qxKLkh.tif"><path d="M389.59,511.8H210q-6.94-2.1-6-9.31c1.83-6.1,6.56-7.27,12.08-7.25,22.16.05,44.32-.12,66.48.08,33.07-.11,66.14,0,99.21-.08,11.73,0,19.7-6.21,22.25-16.9,2.72-11.44-6.11-23.76-17.84-24.86-2.32-.21-4.65-.11-7-.12-42.71-.05-85.42.11-128.13-.07-45.72.09-91.44.25-137.15-.05-29.34-.19-52.37-21.22-54.74-50.48-1.79-22.21,10.22-43.55,32.21-53.35a60.28,60.28,0,0,1,8.44-3.05,4.77,4.77,0,0,0,3.84-5.1c0-1.67,0-3.33,0-5V25.93c0-9.58,0-9.69-9.49-7.82a96.18,96.18,0,0,0-41.4,18.78c-4.26,3.35-8.7,6.61-14.33,2.5-4.63-6-4.35-10.26,1.5-14.94,17.1-13.7,36.05-23,58.39-24A1.47,1.47,0,0,0,99.27,0H387.6C411,2.13,422.76,22.47,422.83,42.35q.09,22.73,0,45.45a16.72,16.72,0,0,0,2.94,9.79A123.42,123.42,0,0,1,446,155.87a117.49,117.49,0,0,1-10.09,58.8c-1.76,3.94-1,6.35,1.82,9.19,20.52,20.41,40.85,41,61.43,61.37,6.45,6.38,11.32,13.36,12.14,22.65v14c-2.76,16.41-12.68,26.49-28.39,30.33-13.59,3.31-26.08.06-36.34-9.88-7.73-7.48-15.2-15.23-23.27-23.21-1.36,7.08-1.72,13.71-4.73,19.78C414,348.05,407.5,355.08,398,359c-3.83,1.57-5.2,3.82-5.17,7.91q.22,31.94,0,63.89c0,3.91,1.36,5.92,5,7.46,15.16,6.42,23.93,18.1,24.64,34.51.86,20.26-15.52,39-32.05,38.61A1.39,1.39,0,0,0,389.59,511.8Z"/><path d="M180.08,511.8H73.33c-13.87-.53-26.17-5.65-37.49-13.29-16-10.82-26.63-25.78-32.87-44C.61,447.64.06,440.5.05,433.35Q0,269.41,0,105.48C0,88.42,4.51,72.59,12.55,57.7c3.5-6.49,7.33-7.89,13.38-5.43,5,4.69,5.92,7.42,2.78,13.15-9.53,17.35-11.86,36-11.82,55.47.22,102.25,0,204.5.16,306.74,0,24.64,10.53,44,31.21,57.48a63.48,63.48,0,0,0,35,10.13c30.25.11,60.5,0,90.75,0,5.54,0,10.31,1.14,12.08,7.33C186.67,507.35,184.68,510.43,180.08,511.8Z"/><path class="cls-1" d="M204.85,504.06l-19.56,0c-1.17-5.51-4.69-7.38-10.13-7.35-30.09.12-60.17.07-90.25.06-33.7,0-60.27-21.09-67.92-54A56.79,56.79,0,0,1,15.44,430q.06-160.11.08-320.21a89.64,89.64,0,0,1,10.89-43c3.89-7.21,3.77-8.43-1-13.66C29.67,48,33.42,42.53,38.28,38c4.58,3.62,8.6,2,12.52-1.26a88.64,88.64,0,0,1,43.8-20.1c12.25-1.89,10.78-4.56,10.78,8.43q.06,157.89.12,315.77c0,4.42-1.16,6.09-5.62,7.28C75.05,354.71,59.45,376.53,60.6,402c1.13,24.95,20.86,45.7,45.3,49a97.85,97.85,0,0,0,12.9.78l132.14.12c2.48,1.32,3.67,3.76,5,6a315.16,315.16,0,0,0,25.09,35c.92,1.12,2.22,2.08,1.8,3.83-22.6,0-45.21.2-67.81.08C209.58,496.71,206.12,498.65,204.85,504.06Z"/><path class="cls-2" d="M249.13,52.62c-23.07.07-46.17.73-69.22,0-16.67-.53-29.58,11.8-29.21,29.08.67,30.93.16,61.88.2,92.83,0,18.08,10.4,28.44,28.39,28.54,5,0,10,.14,14.93.21,2.67,1.24,2.72,4,3.58,6.28,18.35,47.87,52.29,77.65,102.5,88.28a120.9,120.9,0,0,0,53.36-.82c16.07-3.81,29.92-.28,41.37,11.91,2.73,2.91,5.61,5.69,8.45,8.49,2,2,3.06,4.31,2.37,7.2-1.72,13-11,21.39-24.49,21.43-41.57.12-83.14.06-124.71.07-43.56,0-87.13-.07-130.69.1-4.38,0-5.55-1.09-5.55-5.52q.2-160.2,0-320.38c0-4.5,1.25-5.44,5.55-5.43q127.2.19,254.41.1c15.33,0,25.66,10.16,25.92,25.54.09,5.15-.15,10.31-.24,15.46-2.28,1-3.8-.64-5.36-1.71-18.61-12.73-39.16-20.52-61.51-22.55-27.5-2.5-53.91,1.86-78.35,15.55C257.08,49.39,253.59,52.08,249.13,52.62Z"/><path class="cls-3" d="M358.94,265c-19.93,7.55-40.26,7.88-60.61,2.49-49.68-13.16-82-59.09-78.21-110.5,3.74-50.3,44.19-91.4,94.58-96.22,15.78-1.51,31.1.17,45.93,5.89-5.3,4.73-11.9,7.58-17.3,12.24-3.73,3.22-6.56,7.5-11.13,9.76-19-1-36.68,3.15-52.15,14.52-30.79,22.64-39.93,61.78-25,93.85,14.09,30.25,38.59,45,71.73,45.58a18.43,18.43,0,0,1,5.44.48c8.38,6.63,16.38,13.8,25.57,19.38A2.21,2.21,0,0,1,358.94,265Z"/><path class="cls-4" d="M358.94,265c-6.71-5.18-14.09-9.46-20.42-15.17-2.07-1.87-4.26-3.59-5.8-6,1.28-2.65,3.93-2.17,6.1-2.57,20.28-3.76,36.47-14.15,48.53-30.7a75.29,75.29,0,0,0,14.06-37.39c4.4-43-26.94-77.87-63.64-83.62-1.78-.28-4.12.29-5.13-2.1A97.87,97.87,0,0,1,357,68.11a30.9,30.9,0,0,1,3.63-1.46c30.07,10.75,50.8,31.41,62.45,60.87,21.35,54-6.26,116-60.34,136.43C361.51,264.41,360.21,264.64,358.94,265Z"/><path class="cls-5" d="M282.86,496.66a295.67,295.67,0,0,1-31.92-44.8q40.85-.09,81.69-.16c17.27,0,34.54-.11,51.8.08,12,.14,21.53,10,21.88,22.14.33,11.5-9.72,22.72-21.34,22.79C350.94,496.9,316.9,496.71,282.86,496.66Z"/><path class="cls-6" d="M375.54,361.89a141.27,141.27,0,0,1,0,28.93c-1.54.94-3.25.49-4.87.49-47.85,0-95.7-.05-143.55.14-4.93,0-7.23-1.75-8.57-6.21-1.92-6.37-4-12.69-5.72-19.13-.83-3.16-.12-4.82,3.82-4.81q78,.17,156,.08A4.27,4.27,0,0,1,375.54,361.89Z"/><path class="cls-7" d="M375.61,435.84c-1.1,1.61-2.74.78-4.09.78q-128.62.06-257.25,0c-17.51,0-32.53-11-37-26.52-.83-2.84-.42-3.66,2.68-3.65q73.79.12,147.57.08a8.37,8.37,0,0,1,1.47.25c3.47,3.56,4.63,8.36,6.69,12.67,8.57,18,5,14.68,22.43,14.77,36.48.2,73,0,109.45.09C370.28,434.33,373.23,433.68,375.61,435.84Z"/><path class="cls-8" d="M375.54,361.89l-156.48,0c-6.06,0-6.05,0-4.19,5.95,1.74,5.54,3.72,11,5.07,16.65,1.16,4.83,3.48,6.42,8.59,6.4,49-.21,98-.11,147-.1-1,1.37-2.45.71-3.67.71q-146.07,0-292.14,0H76.8C78.51,377,92,363.92,107.19,361.85a70.9,70.9,0,0,1,9.43-.63q126.89-.08,253.75,0C372.08,361.19,374,360.36,375.54,361.89Z"/><path class="cls-4" d="M435.66,244.8c18.36,18.3,36.92,36.4,55,55,8.47,8.71,7.47,22.59-1.22,31.06-8.38,8.17-22.26,8.76-30.72.45-18.27-17.92-36.14-36.25-54.17-54.41-.48-2.69,1.63-3.88,3.26-5.12a123,123,0,0,0,24.1-24.35C432.81,246.22,433.47,244.31,435.66,244.8Z"/><path class="cls-9" d="M405.85,324.63c-.32-1.26-.23-2.95-1-3.73-6.95-6.86-12.91-14.88-21.68-19.67-9.35-5.12-19.24-5.33-29.41-2.87a113.53,113.53,0,0,1-32.49,3.33c-30.08-1.51-57.38-10.93-81-30a136.58,136.58,0,0,1-45.08-66.07c-.25-.78-.6-1.53-.9-2.3a5.62,5.62,0,0,1,1-.18c4.82,0,10.13-1.25,14.32.38s4,7.86,6,11.94c19.68,40,51.22,63.63,95.52,69.57,22.28,3,43.67-.65,64-10.06,3.33-1.53,5.18-1,7.59,1.48,6.88,7.22,14,14.23,21.12,21.22a7.35,7.35,0,0,1,2.58,6.12C406,310.71,407,317.7,405.85,324.63Z"/><path class="cls-8" d="M375.61,435.84c-42.73,0-85.47-.07-128.2.07-4.07,0-6.31-1.15-8-4.92-3.58-8-7.91-15.73-10.45-24.2,1.48-.1,3-.27,4.45-.27,45.84,0,91.68,0,137.52-.1,4,0,5.61.8,5.29,5.11C375.62,419.61,376.82,427.76,375.61,435.84Z"/><path class="cls-10" d="M191.05,187.88c-4.15.08-8.3.24-12.44.2-8.73-.06-12.77-4.07-12.8-12.92-.06-23.65,0-47.31,0-71,0-8-.08-16,0-24,.11-8.22,4.2-12.38,12.29-12.39,17.28,0,34.57.13,51.85.2.49,2.4-1.37,3.6-2.66,5a136.41,136.41,0,0,0-35.55,74.91,127.9,127.9,0,0,0-.06,34.74C191.93,184.47,192.5,186.29,191.05,187.88Z"/><path class="cls-9" d="M249.13,52.62c14.06-9,29-16.15,45.42-19.57,37.95-7.9,73.45-2,106.05,19.53,1.79,1.18,3.63,2.28,5.44,3.42V75.37c-1.73.63-2.4-.86-3.31-1.63q-35.16-29.19-80.81-28.56a101.46,101.46,0,0,0-30.83,5,55.9,55.9,0,0,1-19.54,2.66C264.08,52.68,256.61,52.7,249.13,52.62Z"/><path class="cls-11" d="M191.05,187.88c-.87-8.53-2.44-17-2-25.65,1.74-31.46,11.41-59.9,32.19-84C224.18,74.8,227.06,71.4,230,68h23.33c.31,1.39-.93,1.59-1.6,2.14q-54.21,44.28-45.37,113.78c.5,4-.55,4.44-3.83,4.21C198.69,187.88,194.87,188,191.05,187.88Z"/><path class="cls-4" d="M435.66,244.8c-8.31,10.67-17.15,20.8-28.21,28.77a19.45,19.45,0,0,0-2.91,3.32L393.3,264.76a120.82,120.82,0,0,0,29.63-29.46c1.22-1.75,2.19-1.53,3.48-.15C429.46,238.4,432.57,241.59,435.66,244.8Z"/><path d="M332.64,87.47c29.57,4,51.53,19,63.78,46.41,21.35,47.76-9.06,101.91-60.83,109.22a22,22,0,0,0-2.87.75c-19.33,1-37.22-3.19-53.21-14.56-26.13-18.6-38.41-52.44-30.17-83.45a78.09,78.09,0,0,1,67.4-58.11A104.27,104.27,0,0,1,332.64,87.47Z"/><path class="cls-12" d="M319.71,102.82c20-2.07,36.86,4.68,50.77,18.8,17.95,18.22,22.68,46.12,12.24,69.77-10.3,23.33-34,38.31-59,37.35-4.09,0-6.57-2.07-8.57-5.59-11.93-21-17.18-43.34-15-67.53a114.39,114.39,0,0,1,15.23-48.09A14.07,14.07,0,0,1,319.71,102.82Z"/><path class="cls-8" d="M319.71,102.82a113.6,113.6,0,0,0-17.66,46.47c-3.75,26.94,1.5,52.27,15.65,75.66,1.53,2.53,4,2.56,6,3.79-28.58.52-55.89-22.5-60.81-51.24-6-35,14.92-66.26,49.42-73.89A64.36,64.36,0,0,1,319.71,102.82Z"/></g></g></g></svg>