<svg xmlns="http://www.w3.org/2000/svg" viewBox="0 0 346.02 65.28"><defs><style>.cls-1{fill:#92827f;}.cls-2{fill:#f7c111;}</style></defs><g id="Calque_2" data-name="Calque 2"><g id="Calque_1-2" data-name="Calque 1"><g id="NWhE65.tif"><path class="cls-1" d="M241.59,0h1.32A3.38,3.38,0,0,1,246,2.39c1.63,3.83,3.28,7.66,4.9,11.49l2.4,5.59a.89.89,0,0,0,.85.61c2.2.12,4.38.37,6.57.57,2.65.24,5.3.46,7.95.73,1.44.15,2.89.23,4.33.43a3.5,3.5,0,0,1,3.25,3.59c.15,1.94-.9,3.11-2.24,4.21-1.64,1.35-3.22,2.79-4.83,4.2s-3.34,2.94-5,4.39c-1.1.95-2.17,1.94-3.28,2.87a.88.88,0,0,0-.26,1q1,4.61,2.09,9.21c.72,3.2,1.51,6.39,2.14,9.61.31,1.57-1,4.07-3.15,4.12a6.22,6.22,0,0,1-3.58-.82c-5-3.06-10.07-6-15.07-9.06a1.29,1.29,0,0,0-1.51,0c-4.28,2.54-8.55,5.11-12.82,7.67a26,26,0,0,1-3,1.73c-2.45,1.09-5.6.68-6.11-2.89a4.16,4.16,0,0,1,.18-1.57c1.35-5.92,2.68-11.86,4-17.78a1.31,1.31,0,0,0-.49-1.48l-4.92-4.31c-2-1.73-3.93-3.46-5.91-5.18-1.08-.94-2.14-1.9-3.24-2.82a3.26,3.26,0,0,1-.93-2.18V25a3.23,3.23,0,0,1,2.3-3.05,6,6,0,0,1,1.56-.27c2.87-.25,5.74-.54,8.61-.78,2.72-.22,5.43-.52,8.15-.7a3,3,0,0,1,.65-.09c1.13.14,1.56-.53,2-1.45q3.46-8.22,7-16.41A3.33,3.33,0,0,1,241.59,0Z"/></g><g id="NWhE65.tif-2" data-name="NWhE65.tif"><path class="cls-1" d="M311.37,0h1.32a3.38,3.38,0,0,1,3.07,2.39c1.63,3.83,3.28,7.66,4.9,11.49.79,1.86,1.6,3.72,2.39,5.59a.91.91,0,0,0,.86.61c2.19.12,4.38.37,6.57.57,2.65.24,5.3.46,7.95.73,1.44.15,2.89.23,4.33.43A3.51,3.51,0,0,1,346,25.4c.15,1.94-.9,3.11-2.24,4.21-1.65,1.35-3.23,2.79-4.83,4.2s-3.34,2.94-5,4.39c-1.1.95-2.17,1.94-3.28,2.87a.9.9,0,0,0-.27,1q1.06,4.61,2.1,9.21c.71,3.2,1.51,6.39,2.14,9.61.31,1.57-1,4.07-3.15,4.12a6.25,6.25,0,0,1-3.59-.82c-5-3.06-10.06-6-15.07-9.06a1.29,1.29,0,0,0-1.51,0c-4.28,2.54-8.54,5.11-12.81,7.67a27,27,0,0,1-3,1.73c-2.45,1.09-5.6.68-6.11-2.89a4.6,4.6,0,0,1,.18-1.57c1.36-5.92,2.68-11.86,4.05-17.78a1.33,1.33,0,0,0-.49-1.48l-4.92-4.31c-2-1.73-3.93-3.46-5.91-5.18-1.08-.94-2.14-1.9-3.24-2.82a3.21,3.21,0,0,1-.93-2.18V25a3.23,3.23,0,0,1,2.3-3.05A5.94,5.94,0,0,1,282,21.7c2.87-.25,5.74-.54,8.61-.78,2.72-.22,5.43-.52,8.15-.7a3,3,0,0,1,.65-.09c1.13.14,1.56-.53,1.95-1.45q3.45-8.22,7-16.41A3.32,3.32,0,0,1,311.37,0Z"/></g><g id="NWhE65.tif-3" data-name="NWhE65.tif"><path class="cls-1" d="M102.52,0h1.32a3.38,3.38,0,0,1,3.07,2.39c1.63,3.83,3.28,7.66,4.91,11.49q1.19,2.79,2.39,5.59a.89.89,0,0,0,.85.61c2.2.12,4.39.37,6.58.57,2.64.24,5.3.46,7.94.73,1.45.15,2.9.23,4.34.43a3.5,3.5,0,0,1,3.24,3.59c.15,1.94-.9,3.11-2.24,4.21-1.64,1.35-3.22,2.79-4.83,4.2s-3.34,2.94-5,4.39c-1.1.95-2.17,1.94-3.28,2.87a.88.88,0,0,0-.26,1c.7,3.07,1.41,6.14,2.09,9.21s1.51,6.39,2.14,9.61c.31,1.57-1,4.07-3.15,4.12A6.23,6.23,0,0,1,119,64.2c-5-3.06-10.07-6-15.07-9.06a1.29,1.29,0,0,0-1.51,0c-4.28,2.54-8.55,5.11-12.82,7.67a26,26,0,0,1-3,1.73c-2.45,1.09-5.6.68-6.11-2.89a4.16,4.16,0,0,1,.18-1.57c1.35-5.92,2.68-11.86,4-17.78a1.31,1.31,0,0,0-.49-1.48l-4.92-4.31c-2-1.73-3.93-3.46-5.91-5.18-1.08-.94-2.14-1.9-3.24-2.82a3.26,3.26,0,0,1-.93-2.18V25A3.22,3.22,0,0,1,71.6,22a5.86,5.86,0,0,1,1.55-.27c2.87-.25,5.74-.54,8.61-.78,2.72-.22,5.43-.52,8.15-.7a3.16,3.16,0,0,1,.66-.09c1.12.14,1.55-.53,1.94-1.45q3.46-8.22,7-16.41A3.33,3.33,0,0,1,102.52,0Z"/></g><g id="NWhE65.tif-4" data-name="NWhE65.tif"><path class="cls-1" d="M171.81,0h1.32a3.38,3.38,0,0,1,3.07,2.39c1.63,3.83,3.28,7.66,4.91,11.49q1.19,2.79,2.39,5.59a.89.89,0,0,0,.85.61c2.2.12,4.39.37,6.58.57,2.65.24,5.3.46,7.94.73,1.45.15,2.9.23,4.34.43a3.5,3.5,0,0,1,3.24,3.59c.16,1.94-.9,3.11-2.23,4.21-1.65,1.35-3.23,2.79-4.84,4.2s-3.34,2.94-5,4.39c-1.09.95-2.17,1.94-3.28,2.87a.9.9,0,0,0-.26,1c.7,3.07,1.41,6.14,2.09,9.21s1.51,6.39,2.15,9.61c.3,1.57-1,4.07-3.16,4.12a6.23,6.23,0,0,1-3.58-.82c-5-3.06-10.07-6-15.07-9.06a1.29,1.29,0,0,0-1.51,0c-4.28,2.54-8.55,5.11-12.82,7.67a26,26,0,0,1-3,1.73c-2.45,1.09-5.6.68-6.11-2.89a4.16,4.16,0,0,1,.18-1.57c1.35-5.92,2.68-11.86,4-17.78a1.31,1.31,0,0,0-.49-1.48l-4.92-4.31c-2-1.73-3.93-3.46-5.91-5.18-1.08-.94-2.14-1.9-3.24-2.82a3.26,3.26,0,0,1-.93-2.18V25A3.22,3.22,0,0,1,140.89,22a5.86,5.86,0,0,1,1.55-.27c2.87-.25,5.74-.54,8.61-.78,2.72-.22,5.43-.52,8.16-.7a3,3,0,0,1,.65-.09c1.12.14,1.55-.53,1.94-1.45q3.47-8.22,7-16.41A3.33,3.33,0,0,1,171.81,0Z"/></g><g id="NWhE65.tif-5" data-name="NWhE65.tif"><path class="cls-1" d="M33.23,0h1.32a3.38,3.38,0,0,1,3.07,2.39c1.63,3.83,3.28,7.66,4.91,11.49q1.19,2.79,2.39,5.59a.89.89,0,0,0,.85.61c2.2.12,4.38.37,6.57.57,2.65.24,5.3.46,7.95.73,1.44.15,2.9.23,4.33.43a3.5,3.5,0,0,1,3.25,3.59c.15,1.94-.9,3.11-2.24,4.21C64,31,62.41,32.4,60.8,33.81s-3.34,2.94-5,4.39c-1.1.95-2.17,1.94-3.28,2.87a.88.88,0,0,0-.26,1q1,4.61,2.09,9.21c.72,3.2,1.51,6.39,2.14,9.61.31,1.57-1,4.07-3.15,4.12a6.22,6.22,0,0,1-3.58-.82c-5-3.06-10.07-6-15.07-9.06a1.29,1.29,0,0,0-1.51,0c-4.28,2.54-8.55,5.11-12.82,7.67a26,26,0,0,1-3,1.73c-2.45,1.09-5.6.68-6.11-2.89a4.16,4.16,0,0,1,.18-1.57c1.35-5.92,2.68-11.86,4-17.78A1.31,1.31,0,0,0,15,40.83l-4.92-4.31c-2-1.73-3.93-3.46-5.91-5.18C3.09,30.4,2,29.44.93,28.52A3.26,3.26,0,0,1,0,26.34V25A3.23,3.23,0,0,1,2.3,22a6,6,0,0,1,1.56-.27c2.87-.25,5.74-.54,8.61-.78,2.72-.22,5.43-.52,8.15-.7a3,3,0,0,1,.65-.09c1.13.14,1.56-.53,1.95-1.45q3.47-8.22,7-16.41A3.33,3.33,0,0,1,33.23,0Z"/></g><g id="NWhE65.tif-6" data-name="NWhE65.tif"><path class="cls-2" d="M33.23.2h1.32a3.39,3.39,0,0,1,3.07,2.39c1.63,3.83,3.28,7.66,4.91,11.49q1.19,2.8,2.39,5.59a.89.89,0,0,0,.85.61c2.2.12,4.38.37,6.57.57,2.65.24,5.3.46,7.95.74,1.44.15,2.9.23,4.33.42a3.5,3.5,0,0,1,3.25,3.59c.15,1.94-.9,3.11-2.24,4.21C64,31.17,62.41,32.61,60.8,34s-3.34,2.94-5,4.39c-1.1,1-2.17,1.94-3.28,2.87a.9.9,0,0,0-.26,1q1,4.59,2.09,9.21c.72,3.2,1.51,6.38,2.14,9.6.31,1.58-1,4.07-3.15,4.12a6.22,6.22,0,0,1-3.58-.82c-5-3.06-10.07-6-15.07-9.05a1.28,1.28,0,0,0-1.51,0C28.88,57.9,24.61,60.47,20.34,63a27.61,27.61,0,0,1-3,1.74c-2.45,1.08-5.6.67-6.11-2.9a4.16,4.16,0,0,1,.18-1.57c1.35-5.92,2.68-11.85,4-17.77A1.32,1.32,0,0,0,15,41l-4.92-4.31c-2-1.72-3.93-3.46-5.91-5.18C3.09,30.61,2,29.65.93,28.73A3.3,3.3,0,0,1,0,26.55V25.22a3.24,3.24,0,0,1,2.3-3,6.46,6.46,0,0,1,1.56-.27c2.87-.25,5.74-.54,8.61-.78,2.72-.22,5.43-.52,8.15-.7a3.76,3.76,0,0,1,.65-.09c1.13.14,1.56-.52,1.95-1.45q3.47-8.22,7-16.41A3.33,3.33,0,0,1,33.23.2Z"/></g><g id="NWhE65.tif-7" data-name="NWhE65.tif"><path class="cls-2" d="M102.52,0h1.32a3.38,3.38,0,0,1,3.07,2.39c1.63,3.83,3.28,7.66,4.91,11.49q1.19,2.79,2.39,5.59a.89.89,0,0,0,.85.61c2.2.12,4.39.37,6.58.57,2.64.24,5.3.46,7.94.73,1.45.15,2.9.23,4.34.43a3.5,3.5,0,0,1,3.24,3.59c.15,1.94-.9,3.11-2.24,4.21-1.64,1.35-3.22,2.79-4.83,4.2s-3.34,2.94-5,4.39c-1.1.95-2.17,1.94-3.28,2.87a.88.88,0,0,0-.26,1c.7,3.07,1.41,6.14,2.09,9.21s1.51,6.39,2.14,9.61c.31,1.57-1,4.07-3.15,4.12A6.23,6.23,0,0,1,119,64.2c-5-3.06-10.07-6-15.07-9.06a1.29,1.29,0,0,0-1.51,0c-4.28,2.54-8.55,5.11-12.82,7.67a26,26,0,0,1-3,1.73c-2.45,1.09-5.6.68-6.11-2.89a4.16,4.16,0,0,1,.18-1.57c1.35-5.92,2.68-11.86,4-17.78a1.31,1.31,0,0,0-.49-1.48l-4.92-4.31c-2-1.73-3.93-3.46-5.91-5.18-1.08-.94-2.14-1.9-3.24-2.82a3.26,3.26,0,0,1-.93-2.18V25A3.22,3.22,0,0,1,71.6,22a5.86,5.86,0,0,1,1.55-.27c2.87-.25,5.74-.54,8.61-.78,2.72-.22,5.43-.52,8.15-.7a3.16,3.16,0,0,1,.66-.09c1.12.14,1.55-.53,1.94-1.45q3.46-8.22,7-16.41A3.33,3.33,0,0,1,102.52,0Z"/></g></g></g></svg>