<svg xmlns="http://www.w3.org/2000/svg" viewBox="0 0 346.27 65.08"><defs><style>.cls-1{fill:#92827f;}.cls-2{fill:#f7c111;}</style></defs><g id="Calque_2" data-name="Calque 2"><g id="Calque_1-2" data-name="Calque 1"><g id="NWhE65.tif"><path class="cls-1" d="M241.83,0h1.32a3.4,3.4,0,0,1,3.08,2.39c1.62,3.83,3.27,7.66,4.9,11.49q1.19,2.79,2.39,5.59a.91.91,0,0,0,.85.61c2.2.12,4.39.37,6.58.57,2.65.24,5.3.46,7.94.73,1.45.15,2.9.23,4.34.43a3.5,3.5,0,0,1,3.24,3.59c.16,1.94-.9,3.11-2.23,4.21-1.65,1.35-3.23,2.79-4.83,4.2s-3.35,2.94-5,4.39c-1.09.95-2.16,1.94-3.28,2.87a.9.9,0,0,0-.26,1q1.07,4.61,2.09,9.21c.72,3.2,1.51,6.39,2.15,9.61.31,1.57-1,4.07-3.16,4.12a6.23,6.23,0,0,1-3.58-.82c-5-3.06-10.07-6-15.07-9.06a1.29,1.29,0,0,0-1.51,0c-4.28,2.54-8.55,5.11-12.82,7.67a26,26,0,0,1-3,1.73c-2.45,1.09-5.6.68-6.11-2.89a4.16,4.16,0,0,1,.18-1.57c1.35-5.92,2.68-11.86,4-17.78a1.3,1.3,0,0,0-.49-1.48l-4.92-4.31c-2-1.73-3.93-3.46-5.91-5.18-1.08-.94-2.14-1.9-3.23-2.82a3.22,3.22,0,0,1-.94-2.18V25A3.22,3.22,0,0,1,210.91,22a5.86,5.86,0,0,1,1.55-.27c2.88-.25,5.74-.54,8.61-.78,2.72-.22,5.43-.52,8.16-.7a3,3,0,0,1,.65-.09c1.12.14,1.55-.53,1.94-1.45q3.47-8.22,7-16.41A3.33,3.33,0,0,1,241.83,0Z"/></g><g id="NWhE65.tif-2" data-name="NWhE65.tif"><path class="cls-1" d="M311.61,0h1.32A3.38,3.38,0,0,1,316,2.39c1.63,3.83,3.28,7.66,4.91,11.49q1.18,2.79,2.39,5.59a.89.89,0,0,0,.85.61c2.2.12,4.39.37,6.57.57,2.65.24,5.31.46,7.95.73,1.45.15,2.9.23,4.34.43a3.5,3.5,0,0,1,3.24,3.59c.15,1.94-.9,3.11-2.24,4.21-1.64,1.35-3.22,2.79-4.83,4.2s-3.34,2.94-5,4.39c-1.1.95-2.17,1.94-3.28,2.87a.88.88,0,0,0-.26,1c.7,3.07,1.41,6.14,2.09,9.21s1.51,6.39,2.14,9.61c.31,1.57-1,4.07-3.15,4.12a6.22,6.22,0,0,1-3.58-.82c-5-3.06-10.07-6-15.07-9.06a1.29,1.29,0,0,0-1.51,0c-4.28,2.54-8.55,5.11-12.82,7.67a26,26,0,0,1-3,1.73c-2.45,1.09-5.6.68-6.11-2.89a4.16,4.16,0,0,1,.18-1.57c1.35-5.92,2.68-11.86,4-17.78a1.31,1.31,0,0,0-.49-1.48l-4.92-4.31c-2-1.73-3.93-3.46-5.91-5.18-1.08-.94-2.14-1.9-3.24-2.82a3.26,3.26,0,0,1-.93-2.18V25A3.22,3.22,0,0,1,280.69,22a5.86,5.86,0,0,1,1.55-.27c2.87-.25,5.74-.54,8.61-.78,2.72-.22,5.43-.52,8.15-.7a3.16,3.16,0,0,1,.66-.09c1.12.14,1.55-.53,1.94-1.45q3.47-8.22,7-16.41A3.33,3.33,0,0,1,311.61,0Z"/></g><g id="NWhE65.tif-3" data-name="NWhE65.tif"><path class="cls-1" d="M102.76,0h1.33a3.38,3.38,0,0,1,3.07,2.39l4.9,11.49c.79,1.86,1.6,3.72,2.39,5.59a.91.91,0,0,0,.85.61c2.2.12,4.39.37,6.58.57,2.65.24,5.3.46,8,.73,1.44.15,2.89.23,4.33.43a3.51,3.51,0,0,1,3.25,3.59c.15,1.94-.9,3.11-2.24,4.21-1.65,1.35-3.23,2.79-4.83,4.2s-3.34,2.94-5,4.39c-1.1.95-2.17,1.94-3.29,2.87a.9.9,0,0,0-.26,1q1.07,4.61,2.1,9.21c.71,3.2,1.51,6.39,2.14,9.61.31,1.57-1,4.07-3.16,4.12a6.23,6.23,0,0,1-3.58-.82c-5-3.06-10.07-6-15.07-9.06a1.29,1.29,0,0,0-1.51,0c-4.28,2.54-8.54,5.11-12.82,7.67a26,26,0,0,1-3,1.73c-2.45,1.09-5.6.68-6.11-2.89A4.37,4.37,0,0,1,81,60.09c1.36-5.92,2.68-11.86,4-17.78a1.3,1.3,0,0,0-.49-1.48l-4.92-4.31c-2-1.73-3.93-3.46-5.91-5.18-1.08-.94-2.14-1.9-3.23-2.82a3.22,3.22,0,0,1-.94-2.18V25A3.23,3.23,0,0,1,71.84,22a5.87,5.87,0,0,1,1.56-.27c2.87-.25,5.73-.54,8.6-.78,2.72-.22,5.44-.52,8.16-.7a3,3,0,0,1,.65-.09c1.13.14,1.55-.53,1.94-1.45q3.47-8.22,7-16.41A3.32,3.32,0,0,1,102.76,0Z"/></g><g id="NWhE65.tif-4" data-name="NWhE65.tif"><path class="cls-1" d="M172.05,0h1.33a3.38,3.38,0,0,1,3.07,2.39l4.9,11.49c.79,1.86,1.6,3.72,2.39,5.59a.91.91,0,0,0,.86.61c2.19.12,4.38.37,6.57.57,2.65.24,5.3.46,8,.73,1.44.15,2.89.23,4.33.43a3.51,3.51,0,0,1,3.25,3.59c.15,1.94-.9,3.11-2.24,4.21-1.65,1.35-3.23,2.79-4.83,4.2s-3.34,2.94-5,4.39c-1.1.95-2.17,1.94-3.29,2.87a.91.91,0,0,0-.26,1q1.06,4.61,2.1,9.21c.71,3.2,1.51,6.39,2.14,9.61.31,1.57-1,4.07-3.16,4.12a6.23,6.23,0,0,1-3.58-.82c-5-3.06-10.07-6-15.07-9.06a1.29,1.29,0,0,0-1.51,0c-4.28,2.54-8.54,5.11-12.81,7.67a27,27,0,0,1-3,1.73c-2.45,1.09-5.6.68-6.11-2.89a4.6,4.6,0,0,1,.18-1.57c1.36-5.92,2.68-11.86,4-17.78a1.32,1.32,0,0,0-.5-1.48l-4.92-4.31c-2-1.73-3.93-3.46-5.91-5.18-1.08-.94-2.14-1.9-3.23-2.82a3.17,3.17,0,0,1-.93-2.18V25a3.21,3.21,0,0,1,2.3-3.05,5.87,5.87,0,0,1,1.56-.27c2.87-.25,5.73-.54,8.61-.78,2.71-.22,5.43-.52,8.15-.7a3,3,0,0,1,.65-.09c1.13.14,1.55-.53,1.94-1.45q3.47-8.22,7-16.41A3.32,3.32,0,0,1,172.05,0Z"/></g><g id="NWhE65.tif-5" data-name="NWhE65.tif"><path class="cls-1" d="M33.47,0h1.32a3.4,3.4,0,0,1,3.08,2.39c1.62,3.83,3.27,7.66,4.9,11.49q1.18,2.79,2.39,5.59a.91.91,0,0,0,.85.61c2.2.12,4.39.37,6.58.57,2.65.24,5.3.46,7.94.73,1.45.15,2.9.23,4.34.43a3.5,3.5,0,0,1,3.24,3.59c.16,1.94-.9,3.11-2.23,4.21-1.65,1.35-3.23,2.79-4.83,4.2s-3.34,2.94-5,4.39c-1.09.95-2.16,1.94-3.28,2.87a.9.9,0,0,0-.26,1q1.07,4.61,2.09,9.21c.72,3.2,1.51,6.39,2.15,9.61C57,62.47,55.7,65,53.56,65A6.23,6.23,0,0,1,50,64.2c-5-3.06-10.07-6-15.07-9.06a1.29,1.29,0,0,0-1.51,0c-4.28,2.54-8.55,5.11-12.82,7.67a26,26,0,0,1-3,1.73c-2.45,1.09-5.6.68-6.11-2.89a4.16,4.16,0,0,1,.18-1.57c1.36-5.92,2.68-11.86,4-17.78a1.3,1.3,0,0,0-.49-1.48l-4.92-4.31c-2-1.73-3.93-3.46-5.91-5.18-1.08-.94-2.14-1.9-3.23-2.82a3.22,3.22,0,0,1-.94-2.18V25A3.22,3.22,0,0,1,2.55,22,5.86,5.86,0,0,1,4.1,21.7c2.88-.25,5.74-.54,8.61-.78,2.72-.22,5.43-.52,8.16-.7a3,3,0,0,1,.65-.09c1.13.14,1.55-.53,1.94-1.45q3.46-8.22,7-16.41A3.34,3.34,0,0,1,33.47,0Z"/></g><g id="NWhE65.tif-6" data-name="NWhE65.tif"><path class="cls-2" d="M33.23,0a3.33,3.33,0,0,0-3,2.27q-3.53,8.19-7,16.41c-.39.92-.82,1.59-1.95,1.45a3,3,0,0,0-.65.09c-2.72.18-5.43.48-8.15.7-2.87.24-5.74.53-8.61.78A6,6,0,0,0,2.3,22,3.23,3.23,0,0,0,0,25v1.32a3.26,3.26,0,0,0,.93,2.18c1.1.92,2.16,1.88,3.24,2.82,2,1.72,3.94,3.45,5.91,5.18L15,40.83a1.31,1.31,0,0,1,.49,1.48c-1.36,5.92-2.69,11.86-4,17.78a4.16,4.16,0,0,0-.18,1.57c.51,3.57,3.66,4,6.11,2.89a26,26,0,0,0,3-1.73c4.27-2.56,8.54-5.13,12.82-7.67a1.34,1.34,0,0,1,.93-.22L33.87,0Z"/></g></g></g></svg>